<svg width="34" height="34" viewBox="0 0 34 34" fill="none" xmlns="http://www.w3.org/2000/svg">
<path d="M32.1165 14.1552C31.4377 13.7357 30.6821 13.6503 30.0156 13.7159V13.0156C30.0156 5.8571 24.1577 0 17 0C9.84147 0 3.98438 5.85796 3.98438 13.0156V13.7159C3.31792 13.6502 2.56222 13.7357 1.88348 14.1552C0.633649 14.9276 0 16.555 0 18.9922C0 21.4334 0.634844 23.0695 1.88693 23.855C2.50889 24.2452 3.23525 24.3807 3.98438 24.3163V25.0352C3.98438 25.5853 4.43036 26.0312 4.98047 26.0312H8.96484C9.51495 26.0312 9.96094 25.5853 9.96094 25.0352V13.0156C9.96094 12.4655 9.51495 12.0195 8.96484 12.0195H6.02205C6.52727 6.40628 11.2575 1.99219 17 1.99219C22.7425 1.99219 27.4727 6.40628 27.9779 12.0195H25.0352C24.485 12.0195 24.0391 12.4655 24.0391 13.0156V25.0352C24.0391 25.5853 24.485 26.0312 25.0352 26.0312H28.0234V27.0273C28.0234 28.6751 26.6829 30.0156 25.0352 30.0156H21.8091C21.398 28.8563 20.2908 28.0234 18.9922 28.0234H17C15.3523 28.0234 14.0117 29.364 14.0117 31.0117C14.0117 32.6595 15.3523 34 17 34H18.9922C20.2908 34 21.398 33.1671 21.8091 32.0078H25.0352C27.7814 32.0078 30.0156 29.7736 30.0156 27.0273C30.0156 25.814 30.0156 25.1036 30.0156 24.3162C30.7648 24.3807 31.4912 24.2451 32.1131 23.8549C33.3652 23.0695 34 21.4334 34 18.9922C34 16.555 33.3664 14.9276 32.1165 14.1552ZM3.98438 22.3112C3.66655 22.3666 3.26931 22.3704 2.94565 22.1673C2.33079 21.7816 1.99219 20.654 1.99219 18.9922C1.99219 17.3463 2.32322 16.2317 2.92427 15.8539C3.24926 15.6496 3.65872 15.6641 3.98438 15.7284V22.3112ZM7.96875 14.0117V24.0391H5.97656V14.0117H7.96875ZM18.9922 32.0078H17C16.4508 32.0078 16.0039 31.561 16.0039 31.0117C16.0039 30.4625 16.4508 30.0156 17 30.0156H18.9922C19.5414 30.0156 19.9883 30.4625 19.9883 31.0117C19.9883 31.561 19.5414 32.0078 18.9922 32.0078ZM28.0234 24.0391H26.0312V14.0117H28.0234V24.0391ZM31.0615 22.1629C30.7395 22.3684 30.3379 22.3644 30.0156 22.3086V15.7285C30.3413 15.6642 30.7507 15.6496 31.0757 15.854C31.6768 16.2317 32.0078 17.3463 32.0078 18.9922C32.0078 20.6472 31.6717 21.7733 31.0615 22.1629Z" fill="black"/>
</svg>
