<svg width="38" height="30" viewBox="0 0 38 30" fill="none" xmlns="http://www.w3.org/2000/svg">
<path d="M21 22H29C29.6 22 30 21.6 30 21C30 20.4 29.6 20 29 20H21C20.4 20 20 20.4 20 21C20 21.6 20.4 22 21 22Z" fill="#474C55"/>
<path d="M9 22H13C13.6 22 14 21.6 14 21C14 20.4 13.6 20 13 20H9C8.4 20 8 20.4 8 21C8 21.6 8.4 22 9 22Z" fill="#474C55"/>
<path d="M35 0H3C1.4 0 0 1.4 0 3V27C0 28.6 1.4 30 3 30H35C36.6 30 38 28.6 38 27V3C38 1.4 36.6 0 35 0ZM36 27C36 27.6 35.6 28 35 28H3C2.4 28 2 27.6 2 27V10H36V27ZM36 8H2V3C2 2.4 2.4 2 3 2H35C35.6 2 36 2.4 36 3V8Z" fill="#474C55"/>
</svg>
