<svg width="160" height="160" viewBox="0 0 160 160" fill="none" xmlns="http://www.w3.org/2000/svg">
<g opacity="0.1" clip-path="url(#clip0_8_8080)">
<mask id="mask0_8_8080" style="mask-type:alpha" maskUnits="userSpaceOnUse" x="0" y="0" width="160" height="160">
<path d="M0 0H160V160H0V0Z" fill="#D9D9D9"/>
</mask>
<g mask="url(#mask0_8_8080)">
<path d="M325.396 165.196L157.743 -3.23623C158.154 -3.6038 158.564 -3.97137 158.986 -4.32812L326.488 163.953C326.132 164.364 325.764 164.785 325.396 165.196Z" fill="#0B315E"/>
<path d="M318.814 165.196L151.161 -3.23623C151.572 -3.6038 151.983 -3.97137 152.404 -4.32812L319.906 163.953C319.549 164.364 319.182 164.785 318.814 165.196Z" fill="#0B315E"/>
<path d="M312.228 165.196L144.575 -3.23623C144.985 -3.6038 145.396 -3.97137 145.818 -4.32812L313.32 163.953C312.964 164.364 312.596 164.785 312.228 165.196Z" fill="#0B315E"/>
<path d="M305.646 165.196L137.993 -3.23623C138.404 -3.6038 138.815 -3.97137 139.236 -4.32812L306.738 163.953C306.382 164.364 306.014 164.785 305.646 165.196Z" fill="#0B315E"/>
<path d="M299.064 165.196L131.41 -3.23623C131.821 -3.6038 132.232 -3.97137 132.654 -4.32812L300.156 163.953C299.799 164.364 299.432 164.785 299.064 165.196Z" fill="#0B315E"/>
<path d="M292.478 165.196L124.825 -3.23623C125.236 -3.6038 125.646 -3.97137 126.068 -4.32812L293.57 163.953C293.214 164.364 292.846 164.785 292.478 165.196Z" fill="#0B315E"/>
<path d="M285.896 165.196L118.243 -3.23623C118.654 -3.6038 119.065 -3.97137 119.486 -4.32812L286.988 163.953C286.632 164.364 286.264 164.785 285.896 165.196Z" fill="#0B315E"/>
<path d="M279.314 165.196L111.661 -3.23623C112.071 -3.6038 112.482 -3.97137 112.904 -4.32812L280.406 163.953C280.049 164.364 279.682 164.785 279.314 165.196Z" fill="#0B315E"/>
<path d="M272.728 165.196L105.075 -3.23623C105.486 -3.6038 105.897 -3.97137 106.318 -4.32812L273.82 163.953C273.464 164.364 273.096 164.785 272.728 165.196Z" fill="#0B315E"/>
<path d="M266.146 165.196L98.4929 -3.23623C98.9037 -3.6038 99.3145 -3.97137 99.7361 -4.32812L267.238 163.953C266.882 164.364 266.514 164.785 266.146 165.196Z" fill="#0B315E"/>
<path d="M259.564 165.196L91.9108 -3.23623C92.3216 -3.6038 92.7325 -3.97137 93.1541 -4.32812L260.656 163.953C260.299 164.364 259.932 164.785 259.564 165.196Z" fill="#0B315E"/>
<path d="M252.978 165.196L85.3249 -3.23623C85.7357 -3.6038 86.1465 -3.97137 86.5681 -4.32812L254.07 163.953C253.714 164.364 253.346 164.785 252.978 165.196Z" fill="#0B315E"/>
<path d="M246.396 165.196L78.7429 -3.23623C79.1537 -3.6038 79.5645 -3.97137 79.9861 -4.32812L247.488 163.953C247.132 164.364 246.764 164.785 246.396 165.196Z" fill="#0B315E"/>
<path d="M239.814 165.196L72.1608 -3.23623C72.5716 -3.6038 72.9824 -3.97137 73.4041 -4.32812L240.906 163.953C240.549 164.364 240.182 164.785 239.814 165.196Z" fill="#0B315E"/>
<path d="M233.228 165.196L65.5749 -3.23623C65.9857 -3.6038 66.3965 -3.97137 66.8181 -4.32812L234.32 163.953C233.964 164.364 233.596 164.785 233.228 165.196Z" fill="#0B315E"/>
<path d="M226.646 165.196L58.9929 -3.23623C59.4037 -3.6038 59.8145 -3.97137 60.2361 -4.32812L227.738 163.953C227.382 164.364 227.014 164.785 226.646 165.196Z" fill="#0B315E"/>
<path d="M220.064 165.196L52.4108 -3.23623C52.8215 -3.6038 53.2324 -3.97137 53.654 -4.32812L221.156 163.953C220.799 164.364 220.432 164.785 220.064 165.196Z" fill="#0B315E"/>
<path d="M213.478 165.196L45.8243 -3.23623C46.2351 -3.6038 46.6459 -3.97137 47.0675 -4.32812L214.57 163.953C214.214 164.364 213.846 164.785 213.478 165.196Z" fill="#0B315E"/>
<path d="M206.896 165.196L39.2429 -3.23623C39.6537 -3.6038 40.0645 -3.97137 40.4861 -4.32812L207.988 163.953C207.632 164.364 207.264 164.785 206.896 165.196Z" fill="#0B315E"/>
<path d="M200.314 165.196L32.6604 -3.23623C33.0712 -3.6038 33.482 -3.97137 33.9037 -4.32812L201.406 163.953C201.049 164.364 200.682 164.785 200.314 165.196Z" fill="#0B315E"/>
<path d="M193.728 165.196L26.0751 -3.23623C26.4859 -3.6038 26.8968 -3.97137 27.3184 -4.32812L194.82 163.953C194.464 164.364 194.096 164.785 193.728 165.196Z" fill="#0B315E"/>
<path d="M187.146 165.196L19.4927 -3.23623C19.9035 -3.6038 20.3143 -3.97137 20.7359 -4.32812L188.238 163.953C187.882 164.364 187.514 164.785 187.146 165.196Z" fill="#0B315E"/>
<path d="M180.564 165.196L12.9102 -3.23623C13.321 -3.6038 13.7318 -3.97137 14.1535 -4.32812L181.656 163.953C181.299 164.364 180.932 164.785 180.564 165.196Z" fill="#0B315E"/>
<path d="M173.978 165.196L6.32491 -3.23623C6.73572 -3.6038 7.14651 -3.97137 7.56815 -4.32812L175.07 163.953C174.714 164.364 174.346 164.785 173.978 165.196Z" fill="#0B315E"/>
<path d="M167.396 165.196L-0.256683 -3.23623C0.154129 -3.6038 0.564941 -3.97137 0.986557 -4.32812L168.488 163.953C168.132 164.364 167.764 164.785 167.396 165.196Z" fill="#0B315E"/>
<path d="M160.814 165.196L-6.83916 -3.23623C-6.42834 -3.6038 -6.01755 -3.97137 -5.59592 -4.32812L161.906 163.953C161.549 164.364 161.182 164.785 160.814 165.196Z" fill="#0B315E"/>
<path d="M154.228 165.196L-13.4255 -3.23623C-13.0147 -3.6038 -12.6039 -3.97137 -12.1823 -4.32812L155.32 163.953C154.964 164.364 154.596 164.785 154.228 165.196Z" fill="#0B315E"/>
<path d="M147.646 165.196L-20.0069 -3.23623C-19.5961 -3.6038 -19.1853 -3.97137 -18.7637 -4.32812L148.738 163.953C148.382 164.364 148.014 164.785 147.646 165.196Z" fill="#0B315E"/>
<path d="M141.064 165.196L-26.5894 -3.23623C-26.1786 -3.6038 -25.7678 -3.97137 -25.3461 -4.32812L142.156 163.953C141.799 164.364 141.432 164.785 141.064 165.196Z" fill="#0B315E"/>
<path d="M134.478 165.196L-33.1747 -3.23623C-32.7638 -3.6038 -32.353 -3.97137 -31.9314 -4.32812L135.57 163.953C135.214 164.364 134.846 164.785 134.478 165.196Z" fill="#0B315E"/>
<path d="M127.896 165.196L-39.7571 -3.23623C-39.3463 -3.6038 -38.9355 -3.97137 -38.5139 -4.32812L128.988 163.953C128.632 164.364 128.264 164.785 127.896 165.196Z" fill="#0B315E"/>
<path d="M121.314 165.196L-46.3396 -3.23623C-45.9288 -3.6038 -45.518 -3.97137 -45.0963 -4.32812L122.406 163.953C122.049 164.364 121.682 164.785 121.314 165.196Z" fill="#0B315E"/>
<path d="M114.728 165.196L-52.9249 -3.23623C-52.5141 -3.6038 -52.1032 -3.97137 -51.6816 -4.32812L115.82 163.953C115.464 164.364 115.096 164.785 114.728 165.196Z" fill="#0B315E"/>
<path d="M108.146 165.196L-59.5074 -3.23623C-59.0965 -3.6038 -58.6857 -3.97137 -58.2641 -4.32812L109.238 163.953C108.882 164.364 108.514 164.785 108.146 165.196Z" fill="#0B315E"/>
<path d="M101.564 165.196L-66.0887 -3.23623C-65.6779 -3.6038 -65.2671 -3.97137 -64.8455 -4.32812L102.656 163.953C102.299 164.364 101.932 164.785 101.564 165.196Z" fill="#0B315E"/>
<path d="M94.9784 165.196L-72.6751 -3.23623C-72.2643 -3.6038 -71.8535 -3.97137 -71.4319 -4.32812L96.0703 163.953C95.7136 164.364 95.346 164.785 94.9784 165.196Z" fill="#0B315E"/>
<path d="M88.3964 165.196L-79.2576 -3.23623C-78.8468 -3.6038 -78.4359 -3.97137 -78.0143 -4.32812L89.4883 163.953C89.1315 164.364 88.764 164.785 88.3964 165.196Z" fill="#0B315E"/>
<path d="M81.8144 165.196L-85.8389 -3.23623C-85.4281 -3.6038 -85.0173 -3.97137 -84.5957 -4.32812L82.9062 163.953C82.5495 164.364 82.1819 164.785 81.8144 165.196Z" fill="#0B315E"/>
<path d="M75.2284 165.196L-92.4253 -3.23623C-92.0145 -3.6038 -91.6037 -3.97137 -91.1821 -4.32812L76.3203 163.953C75.9636 164.364 75.596 164.785 75.2284 165.196Z" fill="#0B315E"/>
<path d="M68.6464 165.196L-99.0067 -3.23623C-98.5959 -3.6038 -98.1851 -3.97137 -97.7634 -4.32812L69.7383 163.953C69.3815 164.364 69.014 164.785 68.6464 165.196Z" fill="#0B315E"/>
<path d="M62.0644 165.196L-105.589 -3.23623C-105.178 -3.6038 -104.768 -3.97137 -104.346 -4.32812L63.1562 163.953C62.7995 164.364 62.4319 164.785 62.0644 165.196Z" fill="#0B315E"/>
<path d="M55.4784 165.196L-112.175 -3.23623C-111.764 -3.6038 -111.353 -3.97137 -110.931 -4.32812L56.5703 163.953C56.2136 164.364 55.846 164.785 55.4784 165.196Z" fill="#0B315E"/>
<path d="M48.8964 165.196L-118.758 -3.23623C-118.347 -3.6038 -117.936 -3.97137 -117.514 -4.32812L49.9883 163.953C49.6315 164.364 49.264 164.785 48.8964 165.196Z" fill="#0B315E"/>
<path d="M42.3144 165.196L-125.34 -3.23623C-124.929 -3.6038 -124.518 -3.97137 -124.096 -4.32812L43.4062 163.953C43.0495 164.364 42.6819 164.785 42.3144 165.196Z" fill="#0B315E"/>
<path d="M35.7284 165.196L-131.925 -3.23623C-131.514 -3.6038 -131.103 -3.97137 -130.681 -4.32812L36.8203 163.953C36.4636 164.364 36.096 164.785 35.7284 165.196Z" fill="#0B315E"/>
<path d="M29.1464 165.196L-138.508 -3.23623C-138.097 -3.6038 -137.686 -3.97137 -137.264 -4.32812L30.2383 163.953C29.8815 164.364 29.514 164.785 29.1464 165.196Z" fill="#0B315E"/>
<path d="M22.5644 165.196L-145.089 -3.23623C-144.678 -3.6038 -144.267 -3.97137 -143.845 -4.32812L23.6562 163.953C23.2995 164.364 22.9319 164.785 22.5644 165.196Z" fill="#0B315E"/>
<path d="M15.9784 165.196L-151.676 -3.23623C-151.265 -3.6038 -150.854 -3.97137 -150.432 -4.32812L17.0703 163.953C16.7136 164.364 16.346 164.785 15.9784 165.196Z" fill="#0B315E"/>
<path d="M9.3964 165.196L-158.258 -3.23623C-157.847 -3.6038 -157.436 -3.97137 -157.014 -4.32812L10.4883 163.953C10.1315 164.364 9.76396 164.785 9.3964 165.196Z" fill="#0B315E"/>
<path d="M2.81436 165.196L-164.839 -3.23623C-164.428 -3.6038 -164.017 -3.97137 -163.595 -4.32812L3.90625 163.953C3.54949 164.364 3.18193 164.785 2.81436 165.196Z" fill="#0B315E"/>
</g>
</g>
<defs>
<clipPath id="clip0_8_8080">
<rect width="160" height="160" fill="white" transform="matrix(-1 0 0 1 160 0)"/>
</clipPath>
</defs>
</svg>
