<svg width="50" height="50" viewBox="0 0 50 50" fill="none" xmlns="http://www.w3.org/2000/svg">
<rect width="50" height="50" fill="#F6F8FA"/>
<path d="M24.9976 36.2569H30.6282V34.0046H24.9976C20.1102 34.0046 15.9886 29.883 15.9886 24.9956C15.9886 20.1082 20.1102 15.9866 24.9976 15.9866C29.885 15.9866 34.0066 20.1082 34.0066 24.9956V26.606C34.0066 27.4956 33.207 28.374 32.3174 28.374C31.4278 28.374 30.6282 27.4956 30.6282 26.606V24.9956C30.6282 21.8875 28.1057 19.365 24.9976 19.365C21.8895 19.365 19.367 21.8875 19.367 24.9956C19.367 28.1037 21.8895 30.6263 24.9976 30.6263C26.5516 30.6263 27.9706 29.9956 28.9841 28.9709C29.7161 29.9731 30.9773 30.6263 32.3174 30.6263C34.5359 30.6263 36.2589 28.8245 36.2589 26.606V24.9956C36.2589 18.7794 31.2138 13.7344 24.9976 13.7344C18.7814 13.7344 13.7363 18.7794 13.7363 24.9956C13.7363 31.2119 18.7814 36.2569 24.9976 36.2569ZM24.9976 28.374C23.1282 28.374 21.6192 26.865 21.6192 24.9956C21.6192 23.1263 23.1282 21.6173 24.9976 21.6173C26.867 21.6173 28.376 23.1263 28.376 24.9956C28.376 26.865 26.867 28.374 24.9976 28.374Z" fill="black"/>
</svg>
