<svg width="38" height="38" viewBox="0 0 38 38" fill="none" xmlns="http://www.w3.org/2000/svg">
<path d="M23.0041 27.6926L21.3904 26.8592C18.0637 25.1411 15.9942 21.7478 15.9896 18.0036L15.9856 14.7018L17.3216 16.0346C18.4247 17.0578 19.9232 15.5852 18.9165 14.4804L15.6558 11.2277C15.265 10.8726 14.6232 10.7032 14.0605 11.2501L10.996 14.4881C10.5759 14.932 10.5657 15.6398 11.001 16.0688C11.4453 16.5069 12.1623 16.4946 12.5915 16.0415L13.7591 14.8077L13.7631 18.0062C13.7686 22.5857 16.2997 26.736 20.3687 28.8374L21.9824 29.6708C24.4055 30.9222 26.0095 34.2099 26.3234 37.0229C26.386 37.5833 26.8663 38.0036 27.4302 38.0029C28.0887 38.0021 28.6095 37.4322 28.5366 36.7777C28.1418 33.2297 26.0967 29.2897 23.0041 27.6926Z" fill="black"/>
<path d="M11.6992 6.84027C12.1339 7.27504 12.8389 7.27504 13.2736 6.84027L14.9563 5.15758L16.639 6.84027C17.0737 7.27504 17.7787 7.27504 18.2134 6.84027C18.6481 6.40549 18.6481 5.70064 18.2134 5.26586L16.5307 3.58317L18.2134 1.90048C18.6481 1.46571 18.6481 0.760854 18.2134 0.32608C17.7787 -0.108693 17.0737 -0.108693 16.639 0.32608L14.9563 2.00877L13.2736 0.32608C12.8389 -0.108693 12.134 -0.108693 11.6992 0.32608C11.2644 0.760854 11.2644 1.46571 11.6992 1.90048L13.3819 3.58317L11.6992 5.26586C11.2643 5.70064 11.2643 6.40549 11.6992 6.84027Z" fill="black"/>
<path d="M31.5546 8.77344C28.0007 8.77344 25.1094 11.6648 25.1094 15.2187C25.4635 23.7692 37.6471 23.7667 37.9998 15.2186C37.9998 11.6647 35.1085 8.77344 31.5546 8.77344ZM31.5546 19.4373C29.2284 19.4373 27.3359 17.5448 27.3359 15.2187C27.5677 9.62206 35.5424 9.62369 35.7733 15.2187C35.7733 17.5448 33.8808 19.4373 31.5546 19.4373Z" fill="black"/>
<path d="M6.44531 25.1094C2.89134 25.1094 0 28.0006 0 31.5545C0.354024 40.105 12.5378 40.1025 12.8905 31.5545C12.8905 28.0006 9.99921 25.1094 6.44531 25.1094ZM6.44531 35.7732C4.11907 35.7732 2.22656 33.8808 2.22656 31.5545C2.45828 25.9579 10.4331 25.9595 10.664 31.5545C10.664 33.8808 8.77148 35.7732 6.44531 35.7732Z" fill="black"/>
</svg>
