<svg width="54" height="60" viewBox="0 0 54 60" fill="none" xmlns="http://www.w3.org/2000/svg">
<path d="M19.024 37.6728C23.445 42.0925 30.598 42.0882 34.992 37.6947C39.369 33.3186 39.369 26.172 34.948 21.7523C30.584 17.3894 23.445 17.4025 19.068 21.7785C14.673 26.172 14.66 33.3142 19.024 37.6728Z" fill="#FFD300"/>
<path d="M17.705 20.3795C17.732 20.4056 18.107 19.9432 18.526 19.5156C18.875 19.1578 18.155 19.8864 18.526 19.5156L27.022 11.0165L35.523 19.5156C35.899 19.9083 35.523 19.5156 36.326 20.3969C36.645 20.7459 36.326 20.3969 36.326 20.3969L38.199 18.5252C40.223 16.5008 40.223 13.1936 38.199 11.1692L27.018 0L15.851 11.1692C13.826 13.1936 13.826 16.5008 15.851 18.5252L17.705 20.3795Z" fill="#231F20"/>
<path d="M52.047 25.0218L42.844 15.8203L40.959 17.7051C38.955 19.7077 38.955 22.9538 40.959 24.9564L45.755 29.7513L28.386 47.1159C25.322 49.9999 27.024 49.2232 27.029 50.4187L27.024 50.4231C27.024 49.2276 28.473 49.869 25.667 47.1203L8.29401 29.7513L13.535 24.5114C15.294 22.7531 15.294 19.9084 13.535 18.1501L11.205 15.8203L2.00101 25.0218C-0.59899 27.6222 -0.59899 31.8761 2.00101 34.4764L27.029 59.498L52.056 34.4764C54.648 31.8761 54.648 27.6222 52.047 25.0218Z" fill="#231F20"/>
</svg>
