<svg width="221" height="67" viewBox="0 0 221 67" fill="none" xmlns="http://www.w3.org/2000/svg">
<path d="M182.737 41.9794C187.574 46.9043 195.399 46.8995 200.207 42.0037C204.996 37.1273 204.996 29.1638 200.159 24.2388C195.385 19.377 187.574 19.3916 182.785 24.268C177.977 29.1638 177.963 37.1225 182.737 41.9794Z" fill="#FFD300"/>
<path d="M181.288 22.7093C181.317 22.7385 181.728 22.2231 182.186 21.7467C182.568 21.348 181.78 22.1599 182.186 21.7467L191.482 12.276L200.782 21.7467C201.193 22.1842 200.782 21.7467 201.661 22.7287C202.009 23.1177 201.661 22.7287 201.661 22.7287L203.709 20.643C205.924 18.3872 205.924 14.702 203.709 12.4461L191.477 0L179.259 12.4461C177.044 14.702 177.044 18.3872 179.259 20.643L181.288 22.7093Z" fill="#231F20"/>
<path d="M218.864 27.8863L208.795 17.6328L206.732 19.7331C204.541 21.9646 204.541 25.5818 206.732 27.8133L211.979 33.1564L192.977 52.5062C189.625 55.7199 191.487 54.8545 191.492 56.1866L191.487 56.1915C191.487 54.8593 193.072 55.574 190.002 52.5111L170.995 33.1564L176.73 27.3174C178.654 25.3582 178.654 22.1883 176.73 20.229L174.18 17.6328L164.111 27.8863C161.265 30.7839 161.265 35.5241 164.111 38.4217L191.492 66.3039L218.873 38.4217C221.709 35.5241 221.709 30.7839 218.864 27.8863Z" fill="#231F20"/>
<path d="M12.4265 25.3079C12.4265 27.0484 11.8441 28.5215 10.6791 29.7466C9.53323 30.9718 8.12477 31.599 6.48714 31.599C4.84951 31.599 3.46015 30.9767 2.29519 29.7466C1.13023 28.5166 0.547745 27.0484 0.547745 25.2835L0.457031 20.7329H2.8538C2.8538 22.4491 2.8538 23.9903 2.87767 25.3273C2.87767 26.3774 3.23575 27.2915 3.93282 28.0256C4.62511 28.7889 5.47973 29.1681 6.48714 29.1681C7.47067 29.1681 8.3253 28.7889 9.01759 28.0304C9.73375 27.272 10.0918 26.358 10.0918 25.2884L9.93905 12.0547H12.3358L12.4265 25.3079Z" fill="#232323" stroke="#231F20" stroke-width="0.5" stroke-miterlimit="10"/>
<path d="M20.5153 26.7344H17.7605C17.135 26.7344 16.5955 26.5108 16.1706 26.0878C15.6788 25.6211 15.4067 24.9501 15.4067 24.1042L15.3398 12.3047H17.7127L17.8035 23.1707C17.8035 23.9729 18.2045 24.5758 18.8347 24.5758H20.5153V26.7344Z" fill="#232323" stroke="#231F20" stroke-width="0.5" stroke-miterlimit="10"/>
<path d="M30.8848 26.7372H28.6886C28.0154 26.7372 27.4329 26.4455 26.965 25.8913C26.7168 25.5801 26.5162 25.269 26.4064 24.9335C26.0245 26.0274 24.8595 26.7178 23.6277 26.7421H20.0898V24.5786H22.7349C23.1598 24.5786 23.5418 24.4668 23.8998 24.2237C24.3725 23.932 24.5969 23.5333 24.5969 23.018L24.5539 18.5986H26.9077C26.9077 19.4251 26.9316 20.5822 26.9746 22.0797C26.9746 22.8624 27.199 23.4847 27.6669 23.9514C28.0488 24.3744 28.4499 24.5786 28.8987 24.5786H30.8944V25.1377V26.1878V26.7372H30.8848ZM25.1078 16.7901H22.9354V14.5391H25.1078V16.7901ZM28.3544 16.7901H26.182V14.5391H28.3544V16.7901Z" fill="#232323" stroke="#231F20" stroke-width="0.5" stroke-miterlimit="10"/>
<path d="M41.1023 26.7323H39.1066C38.4334 26.7323 37.8509 26.4406 37.383 25.8864C37.1347 25.5752 36.9342 25.2641 36.8244 24.9286C36.4424 26.0225 35.2775 26.7129 34.0457 26.7372H30.5078V24.5737H33.1528C33.5778 24.5737 33.9597 24.4619 34.3178 24.2188C34.7905 23.9271 35.0149 23.5284 35.0149 23.0131L34.9719 18.5938H37.3257C37.3257 19.4202 37.3496 20.5773 37.3925 22.0748C37.3925 22.8575 37.6169 23.4798 38.0848 23.9466C38.4668 24.3695 38.8678 24.5737 39.3166 24.5737H41.1118V25.1328V26.183V26.7323H41.1023ZM35.1199 30.1259H32.9475V27.8749H35.1199V30.1259ZM38.3474 30.1259H36.1942V27.8749H38.3474V30.1259Z" fill="#232323" stroke="#231F20" stroke-width="0.5" stroke-miterlimit="10"/>
<path d="M47.2016 23.8396C47.2016 25.6239 46.1464 26.7372 44.1984 26.7372H40.6797V24.5737H43.3247C44.1984 24.5737 44.8478 24.0389 44.8478 23.0325C44.8478 22.1623 44.8478 21.4282 44.8239 20.8253C44.8 19.9113 44.8 19.1529 44.7809 18.5938H47.1586C47.1777 22.1234 47.2016 23.8639 47.2016 23.8396ZM45.0244 30.1307H42.8759V27.8797H45.0292V30.1307H45.0244Z" fill="#232323" stroke="#231F20" stroke-width="0.5" stroke-miterlimit="10"/>
<path d="M55.2888 26.7344H52.5339C51.9085 26.7344 51.369 26.5108 50.944 26.0878C50.4523 25.6211 50.1801 24.9501 50.1801 24.1042L50.1133 12.3047H52.4862L52.5769 23.1707C52.5769 23.9729 52.9827 24.5758 53.6082 24.5758H55.2888V26.7344Z" fill="#232323" stroke="#231F20" stroke-width="0.5" stroke-miterlimit="10"/>
<path d="M66.4469 26.7317H54.8594V24.544H63.9785C63.7971 23.3188 63.3053 22.3805 62.5223 21.7095C61.7823 21.0824 60.8656 20.7712 59.7866 20.7712C58.6455 20.7712 57.5474 21.1261 56.4493 21.8214L55.5755 19.9933L61.6009 13.9453L63.2576 15.574L60.1876 18.5834C62.4078 18.5834 64.0406 19.4099 65.0958 21.0824C65.9981 22.4972 66.4469 24.3689 66.4469 26.7317Z" fill="#232323" stroke="#231F20" stroke-width="0.5" stroke-miterlimit="10"/>
<path d="M70.9922 29.7272C72.3577 29.7029 73.5035 29.2799 74.4441 28.4096C75.4324 27.4956 75.9242 26.3337 75.9242 24.9092L75.8812 18.5938H78.278L78.3209 24.6612C78.3209 26.6011 77.7814 28.186 76.7072 29.4598C75.652 30.7336 74.2436 31.4434 72.4723 31.5795C72.138 31.1322 71.6415 30.5099 70.9922 29.7272Z" fill="#232323" stroke="#231F20" stroke-width="0.5" stroke-miterlimit="10"/>
<path d="M86.406 26.7344H83.6511C83.0257 26.7344 82.4861 26.5108 82.0612 26.0878C81.5695 25.6211 81.2973 24.9501 81.2973 24.1042L81.2305 12.3047H83.6034L83.6941 23.1707C83.6941 23.9729 84.0951 24.5758 84.7254 24.5758H86.406V26.7344Z" fill="#232323" stroke="#231F20" stroke-width="0.5" stroke-miterlimit="10"/>
<path d="M98.1926 26.7342H95.8865C95.2372 28.0955 94.0245 28.7664 92.258 28.7664C90.5774 28.7664 89.3456 28.0955 88.5626 26.7342H85.9844V24.5707H87.9801C87.9801 21.9842 89.5509 20.375 92.0813 20.375C93.4038 20.375 94.4542 20.8223 95.242 21.6925C95.982 22.4947 96.364 23.4525 96.364 24.5707H98.2021V26.7342H98.1926ZM94.0054 24.5707C94.0054 23.8803 93.8049 23.3212 93.4229 22.8983C93.0887 22.519 92.659 22.3392 92.1911 22.3392C91.6994 22.3392 91.2935 22.519 90.9832 22.8983C90.649 23.3018 90.4676 23.856 90.4676 24.5707C90.4676 25.2854 90.6681 25.8445 91.05 26.2675C91.3843 26.6467 91.814 26.8266 92.2819 26.8266C93.2654 26.8266 94.0054 26.0244 94.0054 24.5707Z" fill="#232323" stroke="#231F20" stroke-width="0.5" stroke-miterlimit="10"/>
<path d="M108.612 26.7343H106.392C105.719 26.7343 105.136 26.4426 104.668 25.8884C104.42 25.5772 104.219 25.2661 104.11 24.9306C103.728 26.0245 102.563 26.7149 101.331 26.7392H97.793V24.5757H100.438C100.863 24.5757 101.245 24.4639 101.603 24.2208C102.076 23.9291 102.3 23.5304 102.3 23.0151L102.257 18.5957H104.611C104.611 19.4222 104.635 20.5793 104.678 22.0768C104.678 22.8595 104.902 23.4818 105.37 23.9485C105.752 24.3715 106.153 24.5757 106.602 24.5757H108.617V25.1348V26.1849V26.7343H108.612ZM102.849 16.7872H100.696V14.5362H102.849V16.7872ZM104.487 13.8409H102.314V11.6094H104.487V13.8409ZM106.1 16.7872H103.947V14.5362H106.1V16.7872Z" fill="#232323" stroke="#231F20" stroke-width="0.5" stroke-miterlimit="10"/>
<path d="M119.006 26.7372H116.81C116.136 26.7372 115.554 26.4455 115.086 25.8913C114.838 25.5801 114.637 25.269 114.528 24.9335C114.146 26.0274 112.981 26.7178 111.749 26.7421H108.211V24.5786H110.856C111.281 24.5786 111.663 24.4668 112.021 24.2237C112.494 23.932 112.718 23.5333 112.718 23.018L112.675 18.5986H115.029C115.029 19.4251 115.053 20.5822 115.096 22.0797C115.096 22.8624 115.32 23.4847 115.788 23.9514C116.17 24.3744 116.571 24.5786 117.02 24.5786H119.015V25.1377V26.1878V26.7372H119.006ZM113.224 16.7901H111.052V14.5391H113.224V16.7901ZM116.475 16.7901H114.303V14.5391H116.475V16.7901Z" fill="#232323" stroke="#231F20" stroke-width="0.5" stroke-miterlimit="10"/>
<path d="M135.521 23.3894C135.497 25.7765 134.447 27.0017 132.317 27.0454C130.952 27.0697 129.944 26.4863 129.338 25.2854C128.846 26.4231 127.882 27.026 126.469 27.0454C125.347 27.0697 124.473 26.6662 123.847 25.8834V26.7294H118.629L118.653 24.5659H121.522C121.498 21.5565 121.479 19.7917 121.455 19.2326H123.833V22.4656V22.5531C123.9 23.2241 124.1 23.7589 124.482 24.1381C124.864 24.5416 125.332 24.7409 125.939 24.7409C126.855 24.7409 127.304 24.2256 127.304 23.2241C127.304 22.9129 127.304 21.5711 127.28 19.2326H129.634C129.658 19.8549 129.658 20.8612 129.677 22.2663C129.701 23.0928 129.901 23.7151 130.326 24.1381C130.708 24.5416 131.176 24.7409 131.782 24.7409C132.699 24.7409 133.148 24.2499 133.148 23.2484C133.148 23.3164 133.148 21.7753 133.124 18.5859H135.497L135.521 23.3894Z" fill="#232323" stroke="#231F20" stroke-width="0.5" stroke-miterlimit="10"/>
<path d="M145.691 22.3607C145.691 23.654 145.152 24.7041 144.054 25.5306C142.979 26.3328 141.59 26.7363 139.885 26.7363H137.98V24.5728H138.969C140.024 24.5728 140.917 24.3735 141.705 23.9457C142.76 23.3866 143.294 22.4969 143.294 21.3154C143.294 21.2474 143.251 18.2574 143.161 12.3017H145.557L145.691 22.3607ZM141.28 22.2489C140.831 22.808 139.757 23.0316 138.926 23.0949L138.816 12.2969H141.17L141.28 22.2489Z" fill="#232323" stroke="#231F20" stroke-width="0.5" stroke-miterlimit="10"/>
<path d="M151.069 26.7315H148.715L148.605 12.2969H150.959L151.069 26.7315Z" fill="#232323" stroke="#231F20" stroke-width="0.5" stroke-miterlimit="10"/>
<path d="M5.0418 41.3828H7.42902L12.4708 53.4497H9.76371L8.68947 50.7612H3.71451L2.64026 53.4497H0L5.0418 41.3828ZM7.76323 48.4372L6.20199 44.5527L4.64075 48.4372H7.76323Z" fill="#232323"/>
<path d="M13.7109 40.9531H16.2653V53.4479H13.7109V40.9531Z" fill="#232323"/>
<path d="M18.3008 40.9531H20.9888V43.2673H18.3008V40.9531ZM18.3676 44.2737H20.9219V53.4479H18.3676V44.2737Z" fill="#232323"/>
<path d="M22.2031 52.2355L23.2965 50.5241C24.2705 51.2437 25.297 51.618 26.1373 51.618C26.8773 51.618 27.2115 51.3458 27.2115 50.9325V50.8985C27.2115 50.3345 26.3378 50.1449 25.3447 49.8386C24.0843 49.4643 22.6567 48.8614 22.6567 47.082V47.048C22.6567 45.181 24.1368 44.1406 25.9511 44.1406C27.0921 44.1406 28.3383 44.5344 29.3123 45.2005L28.3383 46.9993C27.4455 46.4694 26.5574 46.1437 25.9033 46.1437C25.2826 46.1437 24.9627 46.4159 24.9627 46.7757V46.8097C24.9627 47.3251 25.8174 47.5633 26.7961 47.9036C28.0566 48.3315 29.5176 48.9489 29.5176 50.6262V50.6602C29.5176 52.6973 28.0232 53.6211 26.0704 53.6211C24.8052 53.6211 23.3967 53.1932 22.2031 52.2355Z" fill="#232323"/>
<path d="M31.1719 50.8462V46.4997H30.0977V44.2731H31.1719V41.9297H33.7262V44.2731H35.8461V46.4997H33.7262V50.4183C33.7262 51.0163 33.9793 51.308 34.5522 51.308C35.0249 51.308 35.445 51.1865 35.8127 50.9823V53.068C35.2731 53.3937 34.6525 53.5979 33.7978 53.5979C32.2318 53.6028 31.1719 52.9707 31.1719 50.8462Z" fill="#232323"/>
<path d="M37.3594 40.9531H40.0474V43.2673H37.3594V40.9531ZM37.4262 44.2737H39.9805V53.4479H37.4262V44.2737Z" fill="#232323"/>
<path d="M42.3828 50.8462V46.4997H41.3086V44.2731H42.3828V41.9297H44.9372V44.2731H47.057V46.4997H44.9372V50.4183C44.9372 51.0163 45.1902 51.308 45.7631 51.308C46.2358 51.308 46.656 51.1865 47.0236 50.9823V53.068C46.4841 53.3937 45.8634 53.5979 45.0088 53.5979C43.4428 53.6028 42.3828 52.9707 42.3828 50.8462Z" fill="#232323"/>
<path d="M48.5195 40.9531H51.0739V45.5718C51.6611 44.8036 52.4202 44.0987 53.7141 44.0987C55.6478 44.0987 56.7745 45.4016 56.7745 47.5068V53.443H54.2202V48.3333C54.2202 47.1033 53.6473 46.4664 52.6733 46.4664C51.6993 46.4664 51.0786 47.0984 51.0786 48.3333V53.4527H48.5243V40.9531H48.5195Z" fill="#232323"/>
<path d="M58.5625 44.2766H61.1168V45.5747C61.7041 44.8065 62.4775 44.1016 63.7714 44.1016C64.9459 44.1016 65.8387 44.6315 66.3114 45.5552C67.0992 44.612 68.0445 44.1016 69.2715 44.1016C71.1718 44.1016 72.3129 45.2635 72.3129 47.4756V53.4507H69.7585V48.3362C69.7585 47.1061 69.219 46.4692 68.2641 46.4692C67.3045 46.4692 66.7172 47.1013 66.7172 48.3362V53.4556H64.1629V48.3362C64.1629 47.1061 63.6234 46.4692 62.6685 46.4692C61.7088 46.4692 61.1216 47.1013 61.1216 48.3362V53.4556H58.5673V44.2766H58.5625Z" fill="#232323"/>
<path d="M73.5742 50.813V50.779C73.5742 48.776 75.0686 47.8522 77.2028 47.8522C78.1099 47.8522 78.764 48.0078 79.4038 48.2266V48.071C79.4038 46.9917 78.7497 46.3937 77.4701 46.3937C76.4962 46.3937 75.8039 46.5833 74.9827 46.8896L74.3429 44.906C75.336 44.4587 76.31 44.1719 77.8378 44.1719C79.2319 44.1719 80.2393 44.5462 80.8791 45.1977C81.5523 45.8832 81.8531 46.8945 81.8531 48.1245V53.4481H79.3847V52.4563C78.764 53.1564 77.9046 53.6183 76.6633 53.6183C74.9684 53.6183 73.5742 52.6265 73.5742 50.813ZM79.4372 50.215V49.7532C78.998 49.549 78.4298 49.4129 77.8044 49.4129C76.711 49.4129 76.0378 49.8601 76.0378 50.6769V50.7109C76.0378 51.411 76.6108 51.8243 77.432 51.8243C78.6303 51.8243 79.4372 51.1534 79.4372 50.215Z" fill="#232323"/>
<path d="M83.6367 44.2757H86.191V46.1231C86.7115 44.8542 87.5518 44.0374 89.0653 44.1055V46.8281H88.9316C87.2319 46.8281 86.191 47.8734 86.191 50.0612V53.4498H83.6367V44.2757Z" fill="#232323"/>
<path d="M94.6094 47.4935V47.4595C94.6094 44.0514 97.1303 41.2656 100.745 41.2656C102.965 41.2656 104.292 42.0192 105.385 43.1131L103.738 45.0481C102.831 44.2119 101.905 43.6965 100.73 43.6965C98.7488 43.6965 97.3165 45.3738 97.3165 47.4255V47.4595C97.3165 49.5112 98.7106 51.2225 100.73 51.2225C102.077 51.2225 102.898 50.6731 103.824 49.8175L105.471 51.5142C104.259 52.8318 102.917 53.6534 100.649 53.6534C97.1828 53.6534 94.6094 50.9357 94.6094 47.4935Z" fill="#232323"/>
<path d="M106.309 50.813V50.779C106.309 48.776 107.803 47.8522 109.937 47.8522C110.844 47.8522 111.498 48.0078 112.138 48.2266V48.071C112.138 46.9917 111.484 46.3937 110.205 46.3937C109.231 46.3937 108.538 46.5833 107.717 46.8896L107.077 44.906C108.07 44.4587 109.044 44.1719 110.572 44.1719C111.966 44.1719 112.974 44.5462 113.613 45.1977C114.287 45.8832 114.587 46.8945 114.587 48.1245V53.4481H112.119V52.4563C111.498 53.1564 110.639 53.6183 109.398 53.6183C107.703 53.6183 106.309 52.6265 106.309 50.813ZM112.176 50.215V49.7532C111.737 49.549 111.169 49.4129 110.548 49.4129C109.455 49.4129 108.782 49.8601 108.782 50.6769V50.7109C108.782 51.411 109.355 51.8243 110.176 51.8243C111.369 51.8243 112.176 51.1534 112.176 50.215Z" fill="#232323"/>
<path d="M116.375 44.2795H118.929V45.5971C119.55 44.7414 120.409 44.1094 121.737 44.1094C123.837 44.1094 125.838 45.7867 125.838 48.8496V48.8836C125.838 51.9465 123.871 53.6238 121.737 53.6238C120.376 53.6238 119.536 52.9918 118.929 52.2528V56.1909H116.375V44.2795ZM123.279 48.8836V48.8496C123.279 47.3279 122.271 46.3166 121.078 46.3166C119.884 46.3166 118.891 47.3279 118.891 48.8496V48.8836C118.891 50.4054 119.884 51.4166 121.078 51.4166C122.271 51.4166 123.279 50.4248 123.279 48.8836Z" fill="#232323"/>
<path d="M127.348 40.9531H130.036V43.2673H127.348V40.9531ZM127.414 44.2737H129.969V53.4479H127.414V44.2737Z" fill="#232323"/>
<path d="M132.371 50.8462V46.4997H131.297V44.2731H132.371V41.9297H134.925V44.2731H137.045V46.4997H134.925V50.4183C134.925 51.0163 135.178 51.308 135.751 51.308C136.224 51.308 136.644 51.1865 137.012 50.9823V53.068C136.472 53.3937 135.852 53.5979 134.997 53.5979C133.431 53.6028 132.371 52.9707 132.371 50.8462Z" fill="#232323"/>
<path d="M137.969 50.813V50.779C137.969 48.776 139.463 47.8522 141.597 47.8522C142.504 47.8522 143.159 48.0078 143.798 48.2266V48.071C143.798 46.9917 143.144 46.3937 141.865 46.3937C140.891 46.3937 140.198 46.5833 139.377 46.8896L138.737 44.906C139.731 44.4587 140.704 44.1719 142.232 44.1719C143.626 44.1719 144.634 44.5462 145.274 45.1977C145.947 45.8832 146.248 46.8945 146.248 48.1245V53.4481H143.779V52.4563C143.159 53.1564 142.299 53.6183 141.058 53.6183C139.368 53.6183 137.969 52.6265 137.969 50.813ZM143.837 50.215V49.7532C143.397 49.549 142.829 49.4129 142.208 49.4129C141.115 49.4129 140.442 49.8601 140.442 50.6769V50.7109C140.442 51.411 141.015 51.8243 141.836 51.8243C143.03 51.8243 143.837 51.1534 143.837 50.215Z" fill="#232323"/>
<path d="M148.152 40.9531H150.707V53.4479H148.152V40.9531Z" fill="#232323"/>
</svg>
