<svg width="18" height="18" viewBox="0 0 18 18" fill="none" xmlns="http://www.w3.org/2000/svg">
<path d="M8.99933 4.5C8.21711 4.50099 7.46722 4.81217 6.91411 5.36528C6.36099 5.91839 6.04982 6.66828 6.04883 7.4505H7.54883C7.54883 6.65025 8.19983 6 8.99933 6C9.79883 6 10.4498 6.65025 10.4498 7.4505C10.4498 7.899 10.0891 8.2245 9.53783 8.67C9.35774 8.81107 9.18478 8.96101 9.01958 9.11925C8.27108 9.867 8.24933 10.6613 8.24933 10.7498V11.25H9.74933L9.74858 10.7752C9.74933 10.7632 9.77333 10.4858 10.0793 10.1805C10.1918 10.068 10.3336 9.9555 10.4806 9.837C11.0648 9.36375 11.9491 8.649 11.9491 7.4505C11.9485 6.66829 11.6375 5.91828 11.0845 5.3651C10.5315 4.81193 9.78154 4.50079 8.99933 4.5ZM8.24933 12H9.74933V13.5H8.24933V12Z" fill="black"/>
<path d="M9 1.5C4.8645 1.5 1.5 4.8645 1.5 9C1.5 13.1355 4.8645 16.5 9 16.5C13.1355 16.5 16.5 13.1355 16.5 9C16.5 4.8645 13.1355 1.5 9 1.5ZM9 15C5.69175 15 3 12.3082 3 9C3 5.69175 5.69175 3 9 3C12.3082 3 15 5.69175 15 9C15 12.3082 12.3082 15 9 15Z" fill="black"/>
</svg>
