<svg width="24" height="24" viewBox="0 0 24 24" fill="none" xmlns="http://www.w3.org/2000/svg">
<rect width="24" height="24" fill="black"/>
<path d="M12.0011 9.84376C11.5745 9.84263 11.1573 9.96805 10.8021 10.2042C10.4469 10.4403 10.1697 10.7765 10.0057 11.1702C9.84162 11.5639 9.79805 11.9974 9.88048 12.4158C9.96292 12.8343 10.1676 13.2189 10.4688 13.521C10.7699 13.8231 11.1538 14.029 11.572 14.1128C11.9902 14.1965 12.4239 14.1543 12.8181 13.9915C13.2123 13.8287 13.5494 13.5527 13.7866 13.1982C14.0239 12.8438 14.1506 12.4269 14.1508 12.0004C14.1505 11.4297 13.9242 10.8824 13.5213 10.4782C13.1184 10.074 12.5718 9.84587 12.0011 9.84376Z" fill="white"/>
<path d="M19.9444 8.71178C19.9335 8.2464 19.8706 7.7837 19.7569 7.3323C19.5576 6.49115 19.1024 5.73248 18.454 5.1608C17.7744 4.57225 16.93 4.20714 16.0357 4.11505C15.5804 4.06052 15.1227 4.02924 14.6642 4.02134C13.759 4.00077 12.8584 4.00077 11.9578 4.00077C10.8938 4.00077 9.82976 3.99048 8.76344 4.04534C8.36007 4.05951 7.95844 4.10537 7.56226 4.18249C6.69238 4.34446 5.89394 4.77163 5.27647 5.40538C4.64614 6.08502 4.24482 6.94521 4.129 7.86489C4.05763 8.37953 4.02211 8.89851 4.02271 9.41808C4.00824 10.2661 4.001 11.1149 4.001 11.9645C4.001 13.1439 3.98728 14.3268 4.06157 15.5063C4.0889 16.0109 4.17952 16.51 4.33129 16.992C4.63202 17.9599 5.28445 18.7799 6.15992 19.2904C6.81706 19.6654 7.55297 19.8811 8.30857 19.9201C8.82744 19.959 9.34974 19.9841 9.8709 19.9864C11.567 19.9967 13.2642 20.0196 14.9614 19.9647C15.4962 19.9587 16.0291 19.8998 16.5523 19.7887C17.4197 19.6063 18.2073 19.1544 18.8025 18.4976C19.3978 17.8407 19.7702 17.0126 19.8667 16.1314C19.9369 15.6167 19.9724 15.0978 19.9729 14.5783C19.9889 13.7211 19.9912 12.8639 20.0038 11.6319C19.9878 10.905 19.9707 9.80781 19.9444 8.71178ZM11.9921 16.1052C11.1803 16.1045 10.3868 15.8631 9.71216 15.4115C9.03748 14.96 8.51183 14.3185 8.20167 13.5683C7.89151 12.818 7.81077 11.9926 7.96965 11.1965C8.12853 10.4003 8.51991 9.66914 9.09429 9.0954C9.66867 8.52165 10.4003 8.1311 11.1966 7.9731C11.9929 7.8151 12.8182 7.89676 13.5681 8.20776C14.3181 8.51875 14.9589 9.04512 15.4097 9.7203C15.8606 10.3955 16.101 11.1892 16.1008 12.001C16.1011 12.5405 15.995 13.0746 15.7886 13.573C15.5822 14.0714 15.2794 14.5241 14.8978 14.9054C14.5162 15.2866 14.0631 15.5888 13.5645 15.7947C13.0659 16.0006 12.5315 16.1061 11.9921 16.1052ZM16.6654 8.79063C16.3912 8.79154 16.1229 8.71104 15.8945 8.55933C15.6661 8.40763 15.4878 8.19154 15.3823 7.93845C15.2768 7.68535 15.2488 7.40663 15.3018 7.1376C15.3548 6.86857 15.4865 6.62133 15.6801 6.42719C15.8738 6.23306 16.1207 6.10077 16.3896 6.04708C16.6585 5.99339 16.9373 6.02071 17.1907 6.1256C17.444 6.23048 17.6605 6.40819 17.8128 6.63624C17.9651 6.86428 18.0462 7.13238 18.046 7.40659C18.0433 7.77181 17.897 8.1213 17.6386 8.37945C17.3802 8.6376 17.0306 8.78367 16.6654 8.78606V8.79063Z" fill="white"/>
</svg>
