<svg width="38" height="38" viewBox="0 0 38 38" fill="none" xmlns="http://www.w3.org/2000/svg">
<path d="M14.5453 37.9549H4.50878C3.31298 37.9549 2.16615 37.4799 1.32059 36.6343C0.475031 35.7888 0 34.6419 0 33.4461L0 4.50878C0 3.31298 0.475031 2.16615 1.32059 1.32059C2.16615 0.475031 3.31298 0 4.50878 0L25.3844 0C26.5802 0 27.7271 0.475031 28.5726 1.32059C29.4182 2.16615 29.8932 3.31298 29.8932 4.50878V15.8529C29.9065 15.9941 29.8902 16.1366 29.8453 16.2712C29.8004 16.4058 29.7279 16.5295 29.6324 16.6345C29.5369 16.7394 29.4205 16.8232 29.2907 16.8806C29.161 16.938 29.0206 16.9676 28.8787 16.9676C28.7369 16.9676 28.5965 16.938 28.4668 16.8806C28.337 16.8232 28.2206 16.7394 28.1251 16.6345C28.0296 16.5295 27.9571 16.4058 27.9122 16.2712C27.8672 16.1366 27.8509 15.9941 27.8643 15.8529V4.50878C27.8643 4.1871 27.8008 3.86859 27.6774 3.57151C27.554 3.27443 27.3732 3.00463 27.1453 2.77759C26.9174 2.55054 26.647 2.37073 26.3494 2.24845C26.0519 2.12617 25.7332 2.06383 25.4115 2.06502H4.50878C4.18559 2.06144 3.8649 2.12201 3.56528 2.24322C3.26566 2.36443 2.99306 2.54387 2.76327 2.77115C2.53347 2.99843 2.35104 3.26904 2.22654 3.5673C2.10204 3.86557 2.03795 4.18557 2.03797 4.50878V33.4732C2.03795 33.7964 2.10204 34.1164 2.22654 34.4147C2.35104 34.7129 2.53347 34.9835 2.76327 35.2108C2.99306 35.4381 3.26566 35.6175 3.56528 35.7387C3.8649 35.86 4.18559 35.9205 4.50878 35.9169H14.5453C14.8156 35.9169 15.0748 36.0243 15.2659 36.2154C15.457 36.4065 15.5643 36.6657 15.5643 36.9359C15.5643 37.2062 15.457 37.4654 15.2659 37.6565C15.0748 37.8476 14.8156 37.9549 14.5453 37.9549Z" fill="black"/>
<path d="M23.4903 10.8928H6.35692C6.21566 10.9062 6.07318 10.8899 5.93858 10.8449C5.80399 10.8 5.68027 10.7275 5.57533 10.632C5.47039 10.5365 5.38655 10.4201 5.32919 10.2903C5.27182 10.1606 5.24219 10.0202 5.24219 9.87836C5.24219 9.73647 5.27182 9.59615 5.32919 9.46637C5.38655 9.3366 5.47039 9.22024 5.57533 9.12474C5.68027 9.02924 5.80399 8.9567 5.93858 8.91178C6.07318 8.86687 6.21566 8.85055 6.35692 8.86388H23.4903C23.7428 8.88772 23.9774 9.0049 24.1482 9.19252C24.3189 9.38013 24.4135 9.62468 24.4135 9.87836C24.4135 10.132 24.3189 10.3766 24.1482 10.5642C23.9774 10.7518 23.7428 10.869 23.4903 10.8928Z" fill="black"/>
<path d="M15.8095 18.8114H6.38617C6.11592 18.8114 5.85674 18.704 5.66564 18.513C5.47454 18.3219 5.36719 18.0627 5.36719 17.7924C5.36719 17.5222 5.47454 17.263 5.66564 17.0719C5.85674 16.8808 6.11592 16.7734 6.38617 16.7734H15.8095C16.0798 16.7734 16.339 16.8808 16.5301 17.0719C16.7212 17.263 16.8285 17.5222 16.8285 17.7924C16.8285 18.0627 16.7212 18.3219 16.5301 18.513C16.339 18.704 16.0798 18.8114 15.8095 18.8114Z" fill="black"/>
<path d="M34.5916 27.4739C34.4424 27.4742 34.2946 27.4448 34.1569 27.3875C34.0191 27.3303 33.8941 27.2462 33.789 27.1402L29.686 23.0282C29.4744 22.8166 29.3555 22.5295 29.3555 22.2302C29.3555 21.9309 29.4744 21.6438 29.686 21.4321C29.8977 21.2205 30.1848 21.1016 30.4841 21.1016C30.7834 21.1016 31.0705 21.2205 31.2821 21.4321L35.3941 25.5441C35.6018 25.7579 35.718 26.0442 35.718 26.3422C35.718 26.6402 35.6018 26.9265 35.3941 27.1402C35.2891 27.2462 35.1641 27.3303 35.0263 27.3875C34.8886 27.4448 34.7408 27.4742 34.5916 27.4739Z" fill="black"/>
<path d="M18.8281 38.0035L19.9734 31.1502L31.3986 19.7249C31.9193 19.2057 32.6246 18.9141 33.3599 18.9141C34.0953 18.9141 34.8006 19.2057 35.3212 19.7249L37.1248 21.5285C37.644 22.0491 37.9356 22.7544 37.9356 23.4898C37.9356 24.2251 37.644 24.9304 37.1248 25.4511L25.6815 36.8583L18.8281 38.0035ZM22.0835 32.1962L21.5875 35.2081L24.5994 34.7031L35.5196 23.7919C35.6149 23.6942 35.6683 23.5631 35.6683 23.4267C35.6683 23.2902 35.6149 23.1591 35.5196 23.0614L33.7161 21.2579C33.6184 21.1626 33.4874 21.1093 33.3509 21.1093C33.2144 21.1093 33.0834 21.1626 32.9857 21.2579L22.0835 32.1962Z" fill="black"/>
</svg>
