<svg width="23" height="24" viewBox="0 0 23 24" fill="none" xmlns="http://www.w3.org/2000/svg">
<path d="M6.67633 23.9709C6.08505 23.8818 5.51255 23.4547 5.26384 22.9198L5.13245 22.6335L5.11837 20.3247L5.10429 18.016L3.10053 18.0019L1.09677 17.9878L0.838676 17.8658C0.388182 17.6546 0.130087 17.3261 0.0409262 16.8569C0.00338508 16.6598 -0.00600021 15.5289 0.00338508 12.9901L0.017463 9.40027L0.130087 9.15625C0.191091 9.02016 0.33187 8.82307 0.449186 8.71514C0.833983 8.3585 0.758901 8.37258 3.04422 8.34442L5.08552 8.32096L5.10898 4.8484L5.13245 1.37584L5.26384 1.09429C5.53132 0.521783 6.08036 0.122908 6.74202 0.0337476C6.92504 0.0102844 8.99919 -0.00379353 11.6177 0.000899119L16.1742 0.0149771L16.3385 0.155756C16.6576 0.42793 22.4483 6.47675 22.5328 6.62222C22.6079 6.763 22.6126 7.19472 22.6032 14.656L22.5891 22.5397L22.4905 22.7837C22.27 23.314 21.8383 23.7269 21.3127 23.9146C21.1062 23.985 20.5056 23.9944 14.0015 23.9991C10.1067 24.0038 6.80772 23.9897 6.67633 23.9709ZM21.0311 23.0746C21.2611 23.0136 21.5239 22.779 21.6318 22.5397C21.7163 22.3614 21.7209 22.0047 21.7209 14.8578V7.35897H18.6707C15.3061 7.35897 15.4 7.36835 15.2967 7.07272C15.2592 6.96948 15.2451 5.99341 15.2451 3.90518V0.883117H11.0546C6.43231 0.883117 6.55901 0.873731 6.2493 1.17406C5.95366 1.46031 5.95366 1.43216 5.95366 5.06896V8.34442H10.0503H14.1423L14.3817 8.45705C14.6632 8.58844 14.9213 8.83246 15.0668 9.10932L15.1747 9.30642L15.1888 13.1028L15.1982 16.8944L15.0902 17.1384C14.865 17.6265 14.5412 17.8799 14.025 17.9597C13.8279 17.9925 12.3216 18.0113 9.83917 18.0113H5.95366V20.1136C5.95366 22.4646 5.96304 22.5584 6.2493 22.8353C6.55901 23.1356 6.14606 23.1216 13.8373 23.1216C18.5956 23.1263 20.9091 23.1122 21.0311 23.0746ZM14.0156 17.0681C14.3206 16.9601 14.3066 17.1713 14.3066 13.1403V9.48474L14.1893 9.36742C14.1236 9.30172 13.9922 9.23603 13.8936 9.21726C13.5745 9.16564 1.43933 9.18441 1.24694 9.24072C1.12493 9.27357 1.04046 9.33926 0.974763 9.43781C0.885602 9.58328 0.885602 9.68652 0.894988 13.2107L0.909066 16.8287L1.02169 16.9507C1.08269 17.0164 1.17655 17.0774 1.23286 17.0868C1.28448 17.0962 4.15168 17.1103 7.60078 17.115C11.9649 17.1197 13.9124 17.1056 14.0156 17.0681ZM20.8716 6.10603C20.6745 5.90425 19.675 4.86248 18.6473 3.79256C17.6196 2.72263 16.6341 1.69964 16.4558 1.51662L16.1367 1.18814V3.8301V6.46737H18.6801H21.2282L20.8716 6.10603Z" fill="black"/>
<path d="M2.71576 13.2412V11.2891L3.80915 11.3078C5.01046 11.3266 5.09962 11.3454 5.37649 11.6269C5.61581 11.871 5.69559 12.0774 5.6909 12.4481C5.6909 12.8423 5.61581 13.0817 5.42342 13.2975C5.16532 13.5932 4.98231 13.6542 4.18456 13.7058L3.46658 13.7574V14.4754V15.1933H3.09117H2.71576V13.2412ZM4.50835 13.0347C4.90722 12.9221 5.05739 12.4388 4.78991 12.1384C4.63974 11.9695 4.4145 11.9179 3.80915 11.9132L3.46658 11.9085V12.4951V13.0817H3.903C4.13763 13.0817 4.4145 13.0582 4.50835 13.0347Z" fill="black"/>
<path d="M6.42291 13.2459V11.2891L7.49284 11.3078C8.5393 11.3219 8.56276 11.3266 8.79739 11.4486C9.45436 11.7912 9.78754 12.6452 9.66084 13.6495C9.58106 14.3205 9.31828 14.7569 8.84901 15.0103L8.55807 15.1699L7.49284 15.184L6.42291 15.2027V13.2459ZM8.44075 14.4801C8.6003 14.3956 8.67538 14.3158 8.76924 14.1375C8.87717 13.9216 8.88655 13.8512 8.88655 13.2694C8.88655 12.6969 8.87717 12.6124 8.77393 12.4106C8.58622 12.0258 8.29528 11.9085 7.54446 11.9085H7.17374V13.2459V14.5833H7.70401C8.15919 14.5833 8.26243 14.5692 8.44075 14.4801Z" fill="black"/>
<path d="M10.4117 13.2443V11.2969H11.7491H13.0865V11.6019V11.9069L12.1386 11.9163L11.186 11.9304L11.1719 12.4137L11.1578 12.8924H12.0072H12.8519V13.1974V13.5024L12.0213 13.5118L11.186 13.5259L11.1719 14.3612L11.1625 15.1918H10.7871H10.4117V13.2443Z" fill="black"/>
</svg>
