<svg width="16" height="15" viewBox="0 0 16 15" fill="none" xmlns="http://www.w3.org/2000/svg">
<path d="M13.2747 15H13.1766C1.84011 14.3481 0.230495 4.78269 0.00549509 1.86346C-0.0126346 1.63649 0.0142001 1.40817 0.0844614 1.19158C0.154723 0.974998 0.26703 0.774406 0.414948 0.601299C0.562865 0.428192 0.743487 0.285974 0.946463 0.182792C1.14944 0.0796102 1.37078 0.0174933 1.5978 5.40918e-07H4.77665C5.00774 -0.000223169 5.23357 0.0689484 5.4249 0.198555C5.61622 0.328162 5.76422 0.512233 5.84973 0.726924L6.72665 2.88462C6.81108 3.09435 6.83204 3.32428 6.78691 3.54582C6.74178 3.76737 6.63255 3.97077 6.4728 4.13077L5.24396 5.37115C5.43591 6.46197 5.95829 7.4675 6.74044 8.25171C7.52258 9.03591 8.52673 9.56094 9.61703 9.75577L10.869 8.51539C11.0314 8.3574 11.2367 8.25072 11.4593 8.20866C11.6819 8.16659 11.912 8.191 12.1209 8.27885L14.2959 9.15C14.5073 9.2382 14.6877 9.38736 14.8141 9.57846C14.9405 9.76957 15.0071 9.99397 15.0055 10.2231V13.2692C15.0055 13.7283 14.8231 14.1685 14.4986 14.4931C14.174 14.8177 13.7338 15 13.2747 15ZM1.73626 1.15385C1.58325 1.15385 1.43651 1.21463 1.32832 1.32282C1.22012 1.43102 1.15934 1.57776 1.15934 1.73077V1.77692C1.42473 5.19231 3.12665 13.2692 13.2401 13.8462C13.3159 13.8508 13.3919 13.8405 13.4637 13.8158C13.5355 13.791 13.6017 13.7524 13.6585 13.702C13.7153 13.6516 13.7616 13.5905 13.7948 13.5222C13.8279 13.4538 13.8472 13.3797 13.8516 13.3038V10.2231L11.6766 9.35192L10.0209 10.9962L9.74396 10.9615C4.72473 10.3327 4.04396 5.31346 4.04396 5.26154L4.00934 4.98462L5.6478 3.32885L4.78242 1.15385H1.73626Z" fill="black"/>
</svg>
