<svg width="50" height="50" viewBox="0 0 50 50" fill="none" xmlns="http://www.w3.org/2000/svg">
<rect width="50" height="50" fill="#F6F8FA"/>
<path d="M24.3452 36.0486C24.5362 36.1837 24.7644 36.2563 24.9984 36.2563C25.2323 36.2563 25.4605 36.1837 25.6515 36.0486C25.9939 35.8042 34.04 29.9956 34.0074 22.7434C34.0074 17.776 29.9657 13.7344 24.9984 13.7344C20.031 13.7344 15.9894 17.776 15.9894 22.7389C15.9567 29.9956 24.0029 35.8042 24.3452 36.0486ZM24.9984 15.9866C28.7247 15.9866 31.7551 19.017 31.7551 22.7479C31.7788 27.7456 26.8137 32.2332 24.9984 33.7062C23.1842 32.2332 18.218 27.7456 18.2416 22.7434C18.2416 19.017 21.272 15.9866 24.9984 15.9866Z" fill="black"/>
</svg>
