<svg width="38" height="38" viewBox="0 0 38 38" fill="none" xmlns="http://www.w3.org/2000/svg">
<path d="M35 0H3C1.4 0 0 1.4 0 3V31C0 32.6 1.4 34 3 34H6V37C6 37.6 6.4 38 7 38H11C11.6 38 12 37.6 12 37V34H26V37C26 37.6 26.4 38 27 38H31C31.6 38 32 37.6 32 37V34H35C36.6 34 38 32.6 38 31V3C38 1.4 36.6 0 35 0ZM10 36H8V34H10V36ZM30 36H28V34H30V36ZM36 31C36 31.6 35.6 32 35 32H31H3C2.4 32 2 31.6 2 31V3C2 2.4 2.4 2 3 2H35C35.6 2 36 2.4 36 3V31Z" fill="#474C55"/>
<path d="M27 16H26C25.6 13 23.2 10.6 20 10V9C20 8.4 19.6 8 19 8C18.4 8 18 8.4 18 9V10C15 10.4 12.6 12.8 12 16H11C10.4 16 10 16.4 10 17C10 17.6 10.4 18 11 18H12C12.4 21 14.8 23.4 18 24V25C18 25.6 18.4 26 19 26C19.6 26 20 25.6 20 25V24C23 23.6 25.4 21.2 26 18H27C27.6 18 28 17.6 28 17C28 16.4 27.6 16 27 16ZM19 22C16.2 22 14 19.8 14 17C14 14.2 16.2 12 19 12C21.8 12 24 14.2 24 17C24 19.8 21.8 22 19 22Z" fill="#474C55"/>
</svg>
