<svg width="39" height="33" viewBox="0 0 39 33" fill="none" xmlns="http://www.w3.org/2000/svg">
<path d="M33.3641 17.5066H29.6407C29.134 17.5066 28.6433 17.5758 28.1764 17.7032C27.2553 15.8925 25.3749 14.6484 23.208 14.6484H16.6264C14.4596 14.6484 12.5791 15.8925 11.658 17.7032C11.1911 17.5758 10.7005 17.5066 10.1937 17.5066H6.47034C3.39799 17.5066 0.898438 20.0062 0.898438 23.0785V29.0306C0.898438 30.874 2.39817 32.3738 4.24158 32.3738H35.5928C37.4363 32.3738 38.936 30.874 38.936 29.0306V23.0785C38.936 20.0062 36.4364 17.5066 33.3641 17.5066ZM11.0545 20.2205V30.1451H4.24158C3.62711 30.1451 3.1272 29.6452 3.1272 29.0307V23.0786C3.1272 21.2352 4.62693 19.7354 6.47034 19.7354H10.1937C10.4962 19.7354 10.7892 19.7765 11.0681 19.8522C11.06 19.9741 11.0545 20.0967 11.0545 20.2205ZM26.5511 30.1451H13.2833V20.2204C13.2833 18.377 14.783 16.8773 16.6264 16.8773H23.208C25.0514 16.8773 26.5511 18.377 26.5511 20.2204V30.1451ZM36.7072 29.0307C36.7072 29.6452 36.2073 30.1451 35.5928 30.1451H28.7799V20.2204C28.7799 20.0966 28.7744 19.974 28.7664 19.8522C29.0453 19.7765 29.3382 19.7354 29.6407 19.7354H33.3641C35.2075 19.7354 36.7072 21.2351 36.7072 23.0785V29.0307Z" fill="black"/>
<path d="M8.33213 6.98438C5.60197 6.98438 3.38086 9.20549 3.38086 11.9356C3.38079 14.6658 5.60197 16.8869 8.33213 16.8869C11.0622 16.8869 13.2834 14.6658 13.2834 11.9356C13.2834 9.20549 11.0623 6.98438 8.33213 6.98438ZM8.33206 14.6582C6.83083 14.6582 5.60955 13.4369 5.60955 11.9356C5.60955 10.4344 6.83083 9.21314 8.33206 9.21314C9.83328 9.21314 11.0546 10.4344 11.0546 11.9356C11.0546 13.4369 9.83328 14.6582 8.33206 14.6582Z" fill="black"/>
<path d="M19.9176 0.835938C16.2701 0.835938 13.3027 3.80331 13.3027 7.45076C13.3027 11.0982 16.2701 14.0656 19.9176 14.0656C23.565 14.0656 26.5324 11.0982 26.5324 7.45076C26.5324 3.80339 23.565 0.835938 19.9176 0.835938ZM19.9176 11.8368C17.499 11.8368 15.5315 9.86926 15.5315 7.45076C15.5315 5.03233 17.499 3.0647 19.9176 3.0647C22.3361 3.0647 24.3036 5.03225 24.3036 7.45076C24.3036 9.86926 22.3361 11.8368 19.9176 11.8368Z" fill="black"/>
<path d="M31.5021 6.98438C28.772 6.98438 26.5508 9.20549 26.5508 11.9356C26.5509 14.6658 28.772 16.8869 31.5021 16.8869C34.2322 16.8869 36.4533 14.6658 36.4533 11.9356C36.4533 9.20549 34.2322 6.98438 31.5021 6.98438ZM31.5021 14.6582C30.0009 14.6582 28.7795 13.4369 28.7795 11.9356C28.7796 10.4344 30.0009 9.21314 31.5021 9.21314C33.0033 9.21314 34.2246 10.4344 34.2246 11.9356C34.2246 13.4369 33.0033 14.6582 31.5021 14.6582Z" fill="black"/>
</svg>
