<svg width="50" height="50" viewBox="0 0 50 50" fill="none" xmlns="http://www.w3.org/2000/svg">
<rect width="50" height="50" fill="#F6F8FA"/>
<path d="M33.843 17.1708C31.6312 14.9538 28.6857 13.7344 25.5554 13.7344C19.0942 13.7344 13.8366 18.992 13.8366 25.4531C13.8366 27.5171 14.3751 29.5336 15.3991 31.3125L13.7363 37.383L19.9494 35.7519C21.6597 36.6862 23.5864 37.1772 25.5501 37.1772H25.5554C32.0112 37.1772 37.385 31.9196 37.385 25.4584C37.385 22.3281 36.0547 19.3879 33.843 17.1708ZM25.5554 35.2029C23.8028 35.2029 22.0873 34.7331 20.5934 33.8463L20.2397 33.6351L16.5552 34.6011L17.537 31.0063L17.3047 30.6368C16.3282 29.0849 15.8161 27.2954 15.8161 25.4531C15.8161 20.0847 20.1869 15.7139 25.5607 15.7139C28.1631 15.7139 30.6071 16.7274 32.4441 18.5697C34.2811 20.412 35.4107 22.856 35.4055 25.4584C35.4055 30.8321 30.9238 35.2029 25.5554 35.2029ZM30.8974 27.9077C30.6071 27.7599 29.166 27.0526 28.8968 26.9576C28.6276 26.8573 28.4323 26.8098 28.237 27.1054C28.0416 27.401 27.4821 28.0555 27.3079 28.2561C27.139 28.4514 26.9648 28.4778 26.6745 28.33C24.9536 27.4696 23.824 26.7939 22.689 24.8461C22.3881 24.3288 22.9899 24.3657 23.5495 23.2466C23.6445 23.0513 23.597 22.8824 23.5231 22.7346C23.4492 22.5868 22.8632 21.1457 22.6204 20.5598C22.3829 19.9897 22.14 20.0688 21.9606 20.0583C21.7916 20.0477 21.5963 20.0477 21.401 20.0477C21.2057 20.0477 20.889 20.1216 20.6198 20.412C20.3506 20.7076 19.5957 21.4149 19.5957 22.856C19.5957 24.2971 20.6462 25.6907 20.7887 25.886C20.9365 26.0813 22.8527 29.0374 25.7929 30.3095C27.651 31.1119 28.3795 31.1805 29.3085 31.0433C29.8734 30.9588 31.04 30.3359 31.2828 29.6497C31.5256 28.9635 31.5256 28.3775 31.4517 28.2561C31.3831 28.1242 31.1878 28.0503 30.8974 27.9077Z" fill="black"/>
</svg>
