<svg width="114" height="33" viewBox="0 0 114 33" fill="none" xmlns="http://www.w3.org/2000/svg">
<rect width="113.85" height="33" fill="black"/>
<path d="M25.4932 16.3256C25.4687 13.6666 27.7262 12.373 27.8295 12.3128C26.5509 10.4953 24.5692 10.247 23.8728 10.2272C22.2085 10.0564 20.594 11.1982 19.7461 11.1982C18.8814 11.1982 17.5758 10.2437 16.1686 10.2717C14.3578 10.299 12.6638 11.3211 11.7348 12.9084C9.81738 16.1449 11.2474 20.901 13.0844 23.5171C14.0033 24.7983 15.0771 26.2289 16.4825 26.1786C17.8575 26.1233 18.3711 25.3239 20.0305 25.3239C21.6745 25.3239 22.1568 26.1786 23.5902 26.1464C25.0659 26.1233 25.995 24.8594 26.8818 23.5666C27.9437 22.0981 28.3701 20.6519 28.3871 20.5776C28.3524 20.5661 25.5211 19.5126 25.4932 16.3256Z" fill="white"/>
<path d="M22.7855 8.50624C23.5251 7.60451 24.0311 6.37774 23.8906 5.13281C22.8202 5.17901 21.4816 5.85469 20.7108 6.73661C20.0288 7.51376 19.4195 8.78756 19.5769 9.98546C20.7793 10.0729 22.0138 9.39394 22.7855 8.50624Z" fill="white"/>
<path d="M45.3933 25.9947H43.4716L42.419 22.7698H38.7603L37.7576 25.9947H35.8867L39.5116 15.0156H41.7506L45.3933 25.9947ZM42.1017 21.4168L41.1498 18.5499C41.0491 18.2571 40.8604 17.5674 40.582 16.4817H40.5482C40.4373 16.9486 40.2588 17.6383 40.0134 18.5499L39.0784 21.4168H42.1017Z" fill="white"/>
<path d="M54.7138 21.9376C54.7138 23.284 54.3407 24.3482 53.5944 25.1295C52.9259 25.825 52.0958 26.1723 51.105 26.1723C50.0355 26.1723 49.2671 25.7978 48.7992 25.0487H48.7654V29.219H46.9614V20.6828C46.9614 19.8363 46.9385 18.9676 46.8945 18.0766H48.4811L48.5818 19.3314H48.6156C49.2172 18.386 50.1302 17.9141 51.3555 17.9141C52.3133 17.9141 53.1129 18.2828 53.7526 19.0212C54.394 19.7604 54.7138 20.7323 54.7138 21.9376ZM52.876 22.0019C52.876 21.2314 52.6983 20.5961 52.3412 20.0962C51.9511 19.5748 51.4274 19.3141 50.7708 19.3141C50.3257 19.3141 49.9212 19.4593 49.5599 19.7456C49.1978 20.0343 48.9608 20.4113 48.85 20.8783C48.7941 21.0961 48.7662 21.2743 48.7662 21.4145V22.7345C48.7662 23.3104 48.9473 23.7963 49.3095 24.1931C49.6716 24.59 50.1421 24.788 50.7208 24.788C51.4003 24.788 51.9291 24.5322 52.3074 24.0224C52.6865 23.5117 52.876 22.8385 52.876 22.0019Z" fill="white"/>
<path d="M64.0528 21.9376C64.0528 23.284 63.6797 24.3482 62.9325 25.1295C62.2649 25.825 61.4348 26.1723 60.444 26.1723C59.3745 26.1723 58.6061 25.7978 58.1391 25.0487H58.1052V29.219H56.3012V20.6828C56.3012 19.8363 56.2784 18.9676 56.2344 18.0766H57.8209L57.9216 19.3314H57.9554C58.5562 18.386 59.4692 17.9141 60.6953 17.9141C61.6523 17.9141 62.4519 18.2828 63.0933 19.0212C63.7321 19.7604 64.0528 20.7323 64.0528 21.9376ZM62.215 22.0019C62.215 21.2314 62.0365 20.5961 61.6794 20.0962C61.2893 19.5748 60.7672 19.3141 60.1098 19.3141C59.6638 19.3141 59.2602 19.4593 58.8981 19.7456C58.5359 20.0343 58.2998 20.4113 58.189 20.8783C58.134 21.0961 58.1052 21.2743 58.1052 21.4145V22.7345C58.1052 23.3104 58.2863 23.7963 58.6468 24.1931C59.0089 24.5891 59.4794 24.788 60.0598 24.788C60.7393 24.788 61.2681 24.5322 61.6464 24.0224C62.0255 23.5117 62.215 22.8385 62.215 22.0019Z" fill="white"/>
<path d="M74.4976 22.9126C74.4976 23.8465 74.165 24.6064 73.4974 25.1929C72.7638 25.834 71.7425 26.1541 70.4301 26.1541C69.2184 26.1541 68.247 25.9264 67.5117 25.4701L67.9297 24.0041C68.7217 24.4711 69.5907 24.7054 70.5376 24.7054C71.217 24.7054 71.7459 24.5552 72.1258 24.2566C72.504 23.9579 72.6927 23.557 72.6927 23.057C72.6927 22.6115 72.537 22.2361 72.2248 21.9317C71.9143 21.6273 71.3956 21.3443 70.6713 21.0828C68.6997 20.3659 67.7148 19.3156 67.7148 17.9346C67.7148 17.032 68.06 16.292 68.7513 15.7162C69.4401 15.1395 70.359 14.8516 71.5081 14.8516C72.5328 14.8516 73.384 15.0256 74.0635 15.373L73.6125 16.8068C72.9779 16.4702 72.2603 16.3019 71.4573 16.3019C70.8227 16.3019 70.3269 16.4545 69.9715 16.7581C69.6711 17.0296 69.5205 17.3604 69.5205 17.7523C69.5205 18.1862 69.6923 18.5451 70.0375 18.8272C70.3379 19.0879 70.8836 19.3701 71.6756 19.6745C72.6445 20.0548 73.3561 20.4995 73.8139 21.0094C74.27 21.5176 74.4976 22.1536 74.4976 22.9126Z" fill="white"/>
<path d="M80.4605 19.3941H78.4721V23.2378C78.4721 24.2154 78.8224 24.7038 79.5247 24.7038C79.8471 24.7038 80.1145 24.6766 80.326 24.6222L80.3759 25.9578C80.0205 26.0874 79.5526 26.1525 78.973 26.1525C78.2605 26.1525 77.7038 25.9405 77.3019 25.5173C76.9016 25.0932 76.7002 24.3821 76.7002 23.383V19.3925H75.5156V18.0725H76.7002V16.623L78.4721 16.1016V18.0725H80.4605V19.3941Z" fill="white"/>
<path d="M89.4335 21.9689C89.4335 23.1858 89.0764 24.1849 88.3639 24.9662C87.6168 25.7705 86.6251 26.1715 85.3889 26.1715C84.1975 26.1715 83.2489 25.7862 82.5415 25.0157C81.8342 24.2451 81.4805 23.2724 81.4805 22.1001C81.4805 20.8733 81.8443 19.8685 82.5745 19.0872C83.3031 18.3051 84.2863 17.9141 85.5225 17.9141C86.7139 17.9141 87.6726 18.2993 88.3961 19.0707C89.0882 19.819 89.4335 20.7851 89.4335 21.9689ZM87.5618 22.0259C87.5618 21.2957 87.4018 20.6696 87.0778 20.1473C86.6995 19.5154 86.1588 19.2002 85.4582 19.2002C84.7331 19.2002 84.1822 19.5162 83.804 20.1473C83.4799 20.6704 83.32 21.3065 83.32 22.0589C83.32 22.789 83.4799 23.4152 83.804 23.9366C84.1941 24.5685 84.739 24.8837 85.4422 24.8837C86.1309 24.8837 86.6716 24.5619 87.0617 23.9201C87.3942 23.3879 87.5618 22.7552 87.5618 22.0259Z" fill="white"/>
<path d="M95.2973 19.6235C95.1188 19.5913 94.9284 19.5748 94.7287 19.5748C94.0941 19.5748 93.6033 19.8083 93.2581 20.276C92.9577 20.6885 92.8071 21.2099 92.8071 21.8394V25.9933H91.0039L91.0208 20.5697C91.0208 19.6573 90.998 18.8265 90.9531 18.0774H92.5244L92.5904 19.5921H92.6404C92.8308 19.0715 93.1311 18.6524 93.5424 18.3381C93.9443 18.0551 94.3784 17.9141 94.8463 17.9141C95.013 17.9141 95.1636 17.9256 95.2973 17.9462V19.6235Z" fill="white"/>
<path d="M103.364 21.6596C103.364 21.9748 103.343 22.2404 103.298 22.4574H97.8864C97.9076 23.2395 98.1691 23.8376 98.6717 24.2501C99.1277 24.6189 99.7175 24.8037 100.442 24.8037C101.243 24.8037 101.974 24.6791 102.632 24.4291L102.914 25.6501C102.146 25.9768 101.239 26.1394 100.192 26.1394C98.9331 26.1394 97.9448 25.778 97.2256 25.0561C96.5081 24.3343 96.1484 23.3649 96.1484 22.1488C96.1484 20.9551 96.4827 19.9609 97.152 19.1681C97.8526 18.3217 98.7994 17.8984 99.9908 17.8984C101.161 17.8984 102.047 18.3217 102.649 19.1681C103.125 19.8405 103.364 20.6721 103.364 21.6596ZM101.644 21.2034C101.656 20.682 101.538 20.2315 101.294 19.8512C100.982 19.362 100.502 19.1178 99.8563 19.1178C99.2665 19.1178 98.7867 19.3562 98.4204 19.8347C98.12 20.215 97.9414 20.6713 97.8864 21.2026H101.644V21.2034Z" fill="white"/>
<path d="M41.5043 8.25791C41.5043 9.22894 41.2056 9.95989 40.609 10.4508C40.0565 10.9037 39.2713 11.1306 38.2542 11.1306C37.7499 11.1306 37.3183 11.1091 36.957 11.0662V5.76064C37.4283 5.68639 37.936 5.64844 38.4843 5.64844C39.4532 5.64844 40.1834 5.85386 40.6759 6.26471C41.2276 6.72919 41.5043 7.39331 41.5043 8.25791ZM40.5693 8.28184C40.5693 7.65236 40.3983 7.16974 40.0565 6.83314C39.7147 6.49736 39.2154 6.32906 38.558 6.32906C38.2787 6.32906 38.041 6.34721 37.8438 6.38516V10.4186C37.953 10.4351 38.1526 10.4425 38.4429 10.4425C39.1215 10.4425 39.6453 10.2585 40.0142 9.89059C40.3831 9.52264 40.5693 8.98639 40.5693 8.28184Z" fill="white"/>
<path d="M46.4614 9.10092C46.4614 9.69905 46.2862 10.1891 45.9359 10.5735C45.5687 10.9687 45.0822 11.1659 44.4746 11.1659C43.8891 11.1659 43.4228 10.977 43.0751 10.5975C42.7282 10.2188 42.5547 9.74112 42.5547 9.16527C42.5547 8.56302 42.7332 8.06885 43.092 7.68522C43.4508 7.3016 43.9331 7.10938 44.5406 7.10938C45.1262 7.10938 45.5966 7.2983 45.9528 7.67697C46.2913 8.04492 46.4614 8.52012 46.4614 9.10092ZM45.5416 9.12897C45.5416 8.7701 45.4621 8.46237 45.3038 8.2058C45.1177 7.8956 44.8528 7.7405 44.5085 7.7405C44.1522 7.7405 43.8815 7.8956 43.6953 8.2058C43.5362 8.46237 43.4575 8.77505 43.4575 9.14465C43.4575 9.50352 43.5371 9.81125 43.6953 10.0678C43.8874 10.378 44.1548 10.5331 44.5 10.5331C44.8385 10.5331 45.1042 10.3755 45.2954 10.0596C45.4595 9.79805 45.5416 9.48785 45.5416 9.12897Z" fill="white"/>
<path d="M53.1113 7.1875L51.8632 11.0765H51.0509L50.5339 9.38777C50.4027 8.9662 50.2961 8.5471 50.2132 8.1313H50.1971C50.1201 8.55865 50.0135 8.97692 49.8764 9.38777L49.3273 11.0765H48.5056L47.332 7.1875H48.2433L48.6943 9.03632C48.8035 9.47357 48.8932 9.8902 48.9651 10.2845H48.9812C49.0472 9.9595 49.1563 9.54535 49.3103 9.04458L49.8764 7.18833H50.599L51.1414 9.00497C51.2726 9.448 51.3792 9.87452 51.4613 10.2854H51.4858C51.5459 9.88525 51.6364 9.45872 51.7566 9.00497L52.2406 7.18833H53.1113V7.1875Z" fill="white"/>
<path d="M57.7072 11.0801H56.8205V8.8526C56.8205 8.1662 56.5531 7.823 56.0166 7.823C55.7535 7.823 55.5411 7.91705 55.3761 8.10598C55.2128 8.2949 55.1299 8.51765 55.1299 8.77258V11.0793H54.2431V8.30233C54.2431 7.96078 54.2321 7.59035 54.2109 7.1894H54.9902L55.0317 7.79743H55.0562C55.1595 7.6085 55.3135 7.45258 55.5157 7.328C55.756 7.1828 56.0251 7.10938 56.3195 7.10938C56.6919 7.10938 57.0015 7.22653 57.2478 7.46165C57.5541 7.74958 57.7072 8.1794 57.7072 8.7503V11.0801Z" fill="white"/>
<path d="M60.1515 11.0798H59.2656V5.40625H60.1515V11.0798Z" fill="white"/>
<path d="M65.3715 9.10092C65.3715 9.69905 65.1964 10.1891 64.8461 10.5735C64.4788 10.9687 63.9915 11.1659 63.3848 11.1659C62.7984 11.1659 62.3321 10.977 61.9852 10.5975C61.6383 10.2188 61.4648 9.74112 61.4648 9.16527C61.4648 8.56302 61.6434 8.06885 62.0022 7.68522C62.3609 7.3016 62.8432 7.10938 63.4499 7.10938C64.0363 7.10938 64.5059 7.2983 64.863 7.67697C65.2015 8.04492 65.3715 8.52012 65.3715 9.10092ZM64.4509 9.12897C64.4509 8.7701 64.3714 8.46237 64.2132 8.2058C64.0278 7.8956 63.7622 7.7405 63.4186 7.7405C63.0615 7.7405 62.7908 7.8956 62.6055 8.2058C62.4464 8.46237 62.3677 8.77505 62.3677 9.14465C62.3677 9.50352 62.4472 9.81125 62.6055 10.0678C62.7975 10.378 63.0649 10.5331 63.4102 10.5331C63.7486 10.5331 64.0135 10.3755 64.2047 10.0596C64.3697 9.79805 64.4509 9.48785 64.4509 9.12897Z" fill="white"/>
<path d="M69.6652 11.0776H68.869L68.803 10.6296H68.7785C68.506 10.9869 68.1176 11.1659 67.6133 11.1659C67.2368 11.1659 66.9322 11.0479 66.7029 10.8136C66.4947 10.6008 66.3906 10.3359 66.3906 10.0216C66.3906 9.54642 66.5937 9.18425 67.0024 8.93345C67.4102 8.68265 67.9839 8.55972 68.7226 8.5655V8.4929C68.7226 7.98057 68.4468 7.72483 67.8942 7.72483C67.5008 7.72483 67.1539 7.82135 66.8543 8.01275L66.6741 7.44515C67.0447 7.22157 67.5025 7.10938 68.0423 7.10938C69.0848 7.10938 69.6077 7.64562 69.6077 8.71812V10.1503C69.6077 10.5389 69.6272 10.8483 69.6652 11.0776ZM68.7446 9.74112V9.14135C67.7665 9.12485 67.2774 9.38637 67.2774 9.9251C67.2774 10.128 67.3332 10.2798 67.4475 10.3813C67.5617 10.4828 67.7072 10.5331 67.8807 10.5331C68.0753 10.5331 68.2572 10.4729 68.4231 10.3533C68.5898 10.2328 68.6922 10.0802 68.7302 9.89292C68.7395 9.85085 68.7446 9.7997 68.7446 9.74112Z" fill="white"/>
<path d="M74.7022 11.0798H73.9153L73.8738 10.4553H73.8493C73.598 10.9305 73.1698 11.1681 72.5682 11.1681C72.0876 11.1681 71.6874 10.9841 71.3701 10.6161C71.0528 10.2482 70.8945 9.7705 70.8945 9.18393C70.8945 8.55445 71.0663 8.0446 71.4115 7.6552C71.7458 7.2922 72.1553 7.1107 72.6427 7.1107C73.1783 7.1107 73.5531 7.28643 73.7664 7.6387H73.7833V5.40625H74.6709V10.032C74.6709 10.4107 74.6811 10.7597 74.7022 11.0798ZM73.7833 9.43968V8.79123C73.7833 8.67903 73.7748 8.58828 73.7588 8.51898C73.7088 8.31108 73.6014 8.13618 73.4381 7.9951C73.2731 7.85403 73.0742 7.78308 72.8449 7.78308C72.5141 7.78308 72.2551 7.91095 72.0648 8.16753C71.8761 8.4241 71.7805 8.75163 71.7805 9.15175C71.7805 9.5362 71.871 9.84805 72.0529 10.0881C72.245 10.3439 72.5039 10.4718 72.828 10.4718C73.1191 10.4718 73.3518 10.3653 73.5286 10.1517C73.6995 9.95448 73.7833 9.71688 73.7833 9.43968Z" fill="white"/>
<path d="M82.2856 9.10092C82.2856 9.69905 82.1104 10.1891 81.7601 10.5735C81.3929 10.9687 80.9072 11.1659 80.2988 11.1659C79.7141 11.1659 79.2479 10.977 78.8993 10.5975C78.5524 10.2188 78.3789 9.74112 78.3789 9.16527C78.3789 8.56302 78.5574 8.06885 78.9162 7.68522C79.275 7.3016 79.7573 7.10938 80.3657 7.10938C80.9504 7.10938 81.4217 7.2983 81.7771 7.67697C82.1155 8.04492 82.2856 8.52012 82.2856 9.10092ZM81.3667 9.12897C81.3667 8.7701 81.2871 8.46237 81.1289 8.2058C80.9419 7.8956 80.6779 7.7405 80.3327 7.7405C79.9773 7.7405 79.7065 7.8956 79.5195 8.2058C79.3604 8.46237 79.2818 8.77505 79.2818 9.14465C79.2818 9.50352 79.3613 9.81125 79.5195 10.0678C79.7116 10.378 79.979 10.5331 80.3242 10.5331C80.6627 10.5331 80.9292 10.3755 81.1204 10.0596C81.2838 9.79805 81.3667 9.48785 81.3667 9.12897Z" fill="white"/>
<path d="M87.0541 11.0801H86.1681V8.8526C86.1681 8.1662 85.9007 7.823 85.3634 7.823C85.1003 7.823 84.8879 7.91705 84.7237 8.10598C84.5596 8.2949 84.4775 8.51765 84.4775 8.77258V11.0793H83.5899V8.30233C83.5899 7.96078 83.5797 7.59035 83.5586 7.1894H84.3371L84.3785 7.79743H84.4031C84.5071 7.6085 84.6611 7.45258 84.8625 7.328C85.1037 7.1828 85.3719 7.10938 85.6672 7.10938C86.0387 7.10938 86.3484 7.22653 86.5946 7.46165C86.9017 7.74958 87.0541 8.1794 87.0541 8.7503V11.0801Z" fill="white"/>
<path d="M93.023 7.83492H92.0466V9.72417C92.0466 10.2043 92.2201 10.4444 92.5636 10.4444C92.7227 10.4444 92.8547 10.4312 92.9587 10.404L92.9816 11.0598C92.8064 11.1242 92.5763 11.1564 92.2928 11.1564C91.9425 11.1564 91.6701 11.0524 91.4729 10.8445C91.2749 10.6366 91.1767 10.2868 91.1767 9.79595V7.83492H90.5938V7.1873H91.1767V6.4745L92.0457 6.21875V7.18648H93.0222V7.83492H93.023Z" fill="white"/>
<path d="M97.7181 11.0798H96.8305V8.86878C96.8305 8.17165 96.5631 7.82267 96.0275 7.82267C95.6162 7.82267 95.3353 8.0248 95.1813 8.42905C95.1551 8.51403 95.1398 8.61797 95.1398 8.74008V11.079H94.2539V5.40625H95.1398V7.75008H95.1568C95.436 7.32355 95.8362 7.1107 96.3549 7.1107C96.7221 7.1107 97.0259 7.22785 97.2671 7.46297C97.5675 7.75585 97.7181 8.19145 97.7181 8.7673V11.0798Z" fill="white"/>
<path d="M102.562 8.94874C102.562 9.10384 102.55 9.23419 102.529 9.34061H99.8694C99.8812 9.72506 100.008 10.0179 100.254 10.2209C100.479 10.4024 100.77 10.4931 101.125 10.4931C101.519 10.4931 101.877 10.4321 102.201 10.3092L102.339 10.9098C101.961 11.0698 101.516 11.1498 101.001 11.1498C100.383 11.1498 99.8965 10.9725 99.5445 10.6177C99.1908 10.263 99.0156 9.78694 99.0156 9.18964C99.0156 8.60306 99.1789 8.11466 99.5081 7.72526C99.8516 7.30946 100.316 7.10156 100.903 7.10156C101.476 7.10156 101.912 7.30946 102.206 7.72526C102.444 8.05526 102.562 8.46364 102.562 8.94874ZM101.716 8.72516C101.722 8.46859 101.664 8.24749 101.544 8.06104C101.39 7.82096 101.156 7.70051 100.838 7.70051C100.549 7.70051 100.313 7.81766 100.133 8.05279C99.9853 8.24006 99.8982 8.46364 99.8694 8.72516H101.716Z" fill="white"/>
</svg>
