<svg width="40" height="40" viewBox="0 0 40 40" fill="none" xmlns="http://www.w3.org/2000/svg">
<path d="M13.1922 36.6064L9 32.4142L4.80783 36.6064C5.97641 37.4816 7.42766 38 9 38C10.5723 38 12.0236 37.4816 13.1922 36.6064ZM14.6064 35.1922C15.4816 34.0236 16 32.5723 16 31C16 29.4277 15.4816 27.9764 14.6064 26.8078L10.4142 31L14.6064 35.1922ZM3.39362 26.8078C2.5184 27.9764 2 29.4277 2 31C2 32.5723 2.5184 34.0236 3.39362 35.1922L7.58579 31L3.39362 26.8078ZM4.80783 25.3936L9 29.5858L13.1922 25.3936C12.0236 24.5184 10.5723 24 9 24C7.42766 24 5.97641 24.5184 4.80783 25.3936ZM9 18C4.02944 18 0 13.9706 0 9C0 4.02944 4.02944 0 9 0C13.9706 0 18 4.02944 18 9C18 13.9706 13.9706 18 9 18ZM9 16C12.866 16 16 12.866 16 9C16 5.13401 12.866 2 9 2C5.13401 2 2 5.13401 2 9C2 12.866 5.13401 16 9 16ZM11.2191 6.37531C11.5641 5.94404 12.1934 5.87412 12.6247 6.21913C13.056 6.56414 13.1259 7.19343 12.7809 7.62469L8.78087 12.6247C8.40854 13.0901 7.71434 13.1286 7.29289 12.7071L5.29289 10.7071C4.90237 10.3166 4.90237 9.68342 5.29289 9.29289C5.68342 8.90237 6.31658 8.90237 6.70711 9.29289L7.91708 10.5029L11.2191 6.37531ZM23 8C22.4477 8 22 7.55228 22 7C22 6.44772 22.4477 6 23 6H39C39.5523 6 40 6.44772 40 7C40 7.55228 39.5523 8 39 8H23ZM23 12C22.4477 12 22 11.5523 22 11C22 10.4477 22.4477 10 23 10H35C35.5523 10 36 10.4477 36 11C36 11.5523 35.5523 12 35 12H23ZM9 40C4.02944 40 0 35.9706 0 31C0 26.0294 4.02944 22 9 22C13.9706 22 18 26.0294 18 31C18 35.9706 13.9706 40 9 40ZM23 30C22.4477 30 22 29.5523 22 29C22 28.4477 22.4477 28 23 28H39C39.5523 28 40 28.4477 40 29C40 29.5523 39.5523 30 39 30H23ZM23 34C22.4477 34 22 33.5523 22 33C22 32.4477 22.4477 32 23 32H35C35.5523 32 36 32.4477 36 33C36 33.5523 35.5523 34 35 34H23Z" fill="black"/>
</svg>
