<svg width="34" height="38" viewBox="0 0 34 38" fill="none" xmlns="http://www.w3.org/2000/svg">
<path d="M29 30C28.4 30 28 30.4 28 31V35C28 35.6 27.6 36 27 36H3C2.4 36 2 35.6 2 35V3C2 2.4 2.4 2 3 2H23C23.6 2 24 1.6 24 1C24 0.4 23.6 0 23 0H3C1.4 0 0 1.4 0 3V35C0 36.6 1.4 38 3 38H27C28.6 38 30 36.6 30 35V31C30 30.4 29.6 30 29 30Z" fill="#474C55"/>
<path d="M30 14H28C26.8 14 26 13.2 26 12C26 10.8 26.8 10 28 10H33C33.6 10 34 9.6 34 9C34 8.4 33.6 8 33 8H30V7C30 6.4 29.6 6 29 6C28.4 6 28 6.4 28 7V8C25.8 8 24 9.8 24 12C24 14.2 25.8 16 28 16H30C31.2 16 32 16.8 32 18C32 19.2 31.2 20 30 20H25C24.4 20 24 20.4 24 21C24 21.6 24.4 22 25 22H28V23C28 23.6 28.4 24 29 24C29.6 24 30 23.6 30 23V22C32.2 22 34 20.2 34 18C34 15.8 32.2 14 30 14Z" fill="#474C55"/>
<path d="M9 22H17C17.6 22 18 21.6 18 21C18 20.4 17.6 20 17 20H9C8.4 20 8 20.4 8 21C8 21.6 8.4 22 9 22Z" fill="#474C55"/>
<path d="M9 30H21C21.6 30 22 29.6 22 29C22 28.4 21.6 28 21 28H9C8.4 28 8 28.4 8 29C8 29.6 8.4 30 9 30Z" fill="#474C55"/>
</svg>
