<svg width="38" height="39" viewBox="0 0 38 39" fill="none" xmlns="http://www.w3.org/2000/svg">
<path d="M37 15.0016C37.6 15.0016 38 14.6016 38 14.0016V10.0016C38 9.60156 37.8 9.20156 37.4 9.00156L19.4 1.00156C19.2 0.801563 18.8 0.801563 18.6 1.00156L0.6 9.00156C0.2 9.20156 0 9.60156 0 10.0016V14.0016C0 14.6016 0.4 15.0016 1 15.0016H6V37.0016H1C0.4 37.0016 0 37.4016 0 38.0016C0 38.6016 0.4 39.0016 1 39.0016H37C37.6 39.0016 38 38.6016 38 38.0016C38 37.4016 37.6 37.0016 37 37.0016H32V15.0016H37ZM18 37.0016H8V15.0016H18V37.0016ZM30 37.0016H20V15.0016H30V37.0016ZM2 13.0016V10.6016L19 3.00156L36 10.6016V13.0016H2Z" fill="black"/>
</svg>
