<svg width="38" height="38" viewBox="0 0 38 38" fill="none" xmlns="http://www.w3.org/2000/svg">
<path d="M35 8H28V3C28 1.4 26.6 0 25 0H13C11.4 0 10 1.4 10 3V8H3C1.4 8 0 9.4 0 11V35C0 36.6 1.4 38 3 38H35C36.6 38 38 36.6 38 35V11C38 9.4 36.6 8 35 8ZM12 3C12 2.4 12.4 2 13 2H25C25.6 2 26 2.4 26 3V8H12V3ZM36 35C36 35.6 35.6 36 35 36H3C2.4 36 2 35.6 2 35V11C2 10.4 2.4 10 3 10H35C35.6 10 36 10.4 36 11V35Z" fill="black"/>
<path d="M29 16H9C8.4 16 8 16.4 8 17C8 17.6 8.4 18 9 18H24V21C24 21.6 24.4 22 25 22C25.6 22 26 21.6 26 21V18H29C29.6 18 30 17.6 30 17C30 16.4 29.6 16 29 16Z" fill="black"/>
</svg>
