<svg width="115" height="33" viewBox="0 0 115 33" fill="none" xmlns="http://www.w3.org/2000/svg">
<rect x="0.574219" width="113.85" height="33" fill="black"/>
<path d="M40.6405 8.45153C40.6405 9.14041 40.4292 9.69213 40.0131 10.1036C39.5346 10.5914 38.9114 10.8368 38.1478 10.8368C37.4179 10.8368 36.7947 10.5872 36.2835 10.0953C35.7712 9.59622 35.5156 8.98366 35.5156 8.25044C35.5156 7.51722 35.7712 6.90466 36.2835 6.40966C36.7947 5.91363 37.4179 5.66406 38.1478 5.66406C38.5111 5.66406 38.8576 5.73728 39.1882 5.87341C39.5177 6.01056 39.786 6.19619 39.9803 6.42512L39.5388 6.86031C39.1998 6.46947 38.7382 6.27663 38.1478 6.27663C37.6154 6.27663 37.1539 6.45812 36.762 6.82422C36.3743 7.19134 36.18 7.66675 36.18 8.25044C36.18 8.83412 36.3743 9.31366 36.762 9.68078C37.1539 10.0427 37.6154 10.2284 38.1478 10.2284C38.7129 10.2284 39.1882 10.0427 39.5631 9.67666C39.8103 9.43431 39.9508 9.10019 39.9877 8.67325H38.1478V8.07719H40.6025C40.632 8.20609 40.6405 8.33087 40.6405 8.45153Z" fill="white" stroke="white" stroke-width="0.16" stroke-miterlimit="10"/>
<path d="M44.5367 6.38084H42.2309V7.94834H44.3096V8.5444H42.2309V10.1119H44.5367V10.7193H41.5781V5.77344H44.5367V6.38084Z" fill="white" stroke="white" stroke-width="0.16" stroke-miterlimit="10"/>
<path d="M47.2858 10.7193H46.6331V6.38084H45.2188V5.77344H48.7012V6.38084H47.2858V10.7193Z" fill="white" stroke="white" stroke-width="0.16" stroke-miterlimit="10"/>
<path d="M51.2188 10.7193V5.77344H51.8705V10.7193H51.2188Z" fill="white" stroke="white" stroke-width="0.16" stroke-miterlimit="10"/>
<path d="M54.7585 10.7193H54.111V6.38084H52.6914V5.77344H56.178V6.38084H54.7585V10.7193Z" fill="white" stroke="white" stroke-width="0.16" stroke-miterlimit="10"/>
<path d="M62.7733 10.0871C62.2737 10.5872 61.6548 10.8368 60.9164 10.8368C60.1739 10.8368 59.555 10.5872 59.0554 10.0871C58.5568 9.58797 58.3086 8.97541 58.3086 8.25044C58.3086 7.52547 58.5568 6.91291 59.0554 6.41378C59.555 5.91363 60.1739 5.66406 60.9164 5.66406C61.6505 5.66406 62.2695 5.91362 62.7691 6.41791C63.2719 6.92116 63.5201 7.52959 63.5201 8.25044C63.5201 8.97541 63.2719 9.58797 62.7733 10.0871ZM59.5381 9.67253C59.9141 10.0427 60.3714 10.2284 60.9164 10.2284C61.4572 10.2284 61.9188 10.0427 62.2906 9.67253C62.6656 9.30231 62.8557 8.82691 62.8557 8.25044C62.8557 7.67397 62.6656 7.19856 62.2906 6.82834C61.9188 6.45813 61.4572 6.2725 60.9164 6.2725C60.3714 6.2725 59.9141 6.45813 59.5381 6.82834C59.1631 7.19856 58.973 7.67397 58.973 8.25044C58.973 8.82691 59.1631 9.30231 59.5381 9.67253Z" fill="white" stroke="white" stroke-width="0.16" stroke-miterlimit="10"/>
<path d="M64.4375 10.7193V5.77344H65.2297L67.6928 9.62H67.7213L67.6928 8.66919V5.77344H68.3445V10.7193H67.6643L65.085 6.683H65.0565L65.085 7.63794V10.7193H64.4375Z" fill="white" stroke="white" stroke-width="0.16" stroke-miterlimit="10"/>
<path d="M58.1489 17.9491C56.1643 17.9491 54.5429 19.4238 54.5429 21.4584C54.5429 23.4766 56.1643 24.9667 58.1489 24.9667C60.1378 24.9667 61.7591 23.4766 61.7591 21.4584C61.7591 19.4238 60.1378 17.9491 58.1489 17.9491ZM58.1489 23.5848C57.0599 23.5848 56.1231 22.7073 56.1231 21.4584C56.1231 20.1931 57.0599 19.3309 58.1489 19.3309C59.2379 19.3309 60.179 20.1931 60.179 21.4584C60.179 22.7073 59.2379 23.5848 58.1489 23.5848ZM50.281 17.9491C48.2921 17.9491 46.675 19.4238 46.675 21.4584C46.675 23.4766 48.2921 24.9667 50.281 24.9667C52.2688 24.9667 53.887 23.4766 53.887 21.4584C53.887 19.4238 52.2688 17.9491 50.281 17.9491ZM50.281 23.5848C49.191 23.5848 48.2509 22.7073 48.2509 21.4584C48.2509 20.1931 49.191 19.3309 50.281 19.3309C51.37 19.3309 52.3069 20.1931 52.3069 21.4584C52.3069 22.7073 51.37 23.5848 50.281 23.5848ZM40.9185 19.0247V20.5158H44.5657C44.459 21.3491 44.1738 21.9617 43.7366 22.3886C43.2042 22.9042 42.3751 23.4766 40.9185 23.4766C38.674 23.4766 36.9164 21.708 36.9164 19.5166C36.9164 17.3252 38.674 15.5566 40.9185 15.5566C42.1321 15.5566 43.0151 16.0196 43.6668 16.6198L44.7432 15.5689C43.8316 14.7192 42.6191 14.0664 40.9185 14.0664C37.8406 14.0664 35.2539 16.5115 35.2539 19.5166C35.2539 22.5216 37.8406 24.9667 40.9185 24.9667C42.5821 24.9667 43.8316 24.4346 44.8139 23.4363C45.8205 22.4536 46.1342 21.0717 46.1342 19.9559C46.1342 19.6094 46.1046 19.2907 46.0518 19.0247H40.9185ZM79.2029 20.1807C78.9061 19.3959 77.9904 17.9491 76.125 17.9491C74.2766 17.9491 72.7377 19.3712 72.7377 21.4584C72.7377 23.424 74.2608 24.9667 76.3025 24.9667C77.9534 24.9667 78.9061 23.9839 79.298 23.4116L78.0727 22.6144C77.664 23.1981 77.1073 23.5848 76.3025 23.5848C75.5029 23.5848 74.9294 23.227 74.5618 22.5216L79.3687 20.5798L79.2029 20.1807ZM74.302 21.3491C74.2608 19.9961 75.3783 19.3031 76.1789 19.3031C76.8063 19.3031 77.3387 19.6094 77.5161 20.0477L74.302 21.3491ZM70.3949 24.7533H71.9751V14.4408H70.3949V24.7533ZM67.8072 18.7308H67.7543C67.3995 18.3203 66.7224 17.9491 65.8647 17.9491C64.0649 17.9491 62.4193 19.4918 62.4193 21.4698C62.4193 23.4363 64.0649 24.9667 65.8647 24.9667C66.7224 24.9667 67.3995 24.5924 67.7543 24.1696H67.8072V24.6728C67.8072 26.0145 67.0731 26.7353 65.889 26.7353C64.9236 26.7353 64.3247 26.0547 64.0776 25.4823L62.7034 26.0423C63.0995 26.9725 64.1484 28.1172 65.889 28.1172C67.7417 28.1172 69.3049 27.0529 69.3049 24.4635V18.1625H67.8072V18.7308ZM65.9999 23.5848C64.911 23.5848 63.9994 22.6949 63.9994 21.4698C63.9994 20.2333 64.911 19.3309 65.9999 19.3309C67.0731 19.3309 67.9191 20.2333 67.9191 21.4698C67.9191 22.6949 67.0731 23.5848 65.9999 23.5848ZM86.6008 14.4408H82.8216V24.7533H84.3975V20.8458H86.6008C88.351 20.8458 90.0674 19.6094 90.0674 17.6428C90.0674 15.6772 88.3468 14.4408 86.6008 14.4408ZM86.642 19.4114H84.3975V15.8752H86.642C87.8187 15.8752 88.4904 16.8291 88.4904 17.6428C88.4904 18.441 87.8187 19.4114 86.642 19.4114ZM96.3837 17.9295C95.2451 17.9295 94.061 18.4203 93.5741 19.5083L94.9726 20.0807C95.2736 19.5083 95.8271 19.3227 96.4122 19.3227C97.2297 19.3227 98.0589 19.8022 98.0716 20.6489V20.7572C97.7864 20.5963 97.1759 20.3581 96.4249 20.3581C94.9187 20.3581 93.384 21.1676 93.384 22.6784C93.384 24.0603 94.6177 24.9502 96.0045 24.9502C97.065 24.9502 97.6501 24.4831 98.0177 23.9396H98.0716V24.7368H99.5936V20.7809C99.5936 18.9525 98.1951 17.9295 96.3837 17.9295ZM96.1936 23.5807C95.6781 23.5807 94.9599 23.3312 94.9599 22.7073C94.9599 21.9091 95.8556 21.6028 96.6308 21.6028C97.3248 21.6028 97.6501 21.7523 98.0716 21.9493C97.948 22.9042 97.1062 23.5807 96.1936 23.5807ZM105.139 18.1553L103.327 22.6258H103.274L101.401 18.1553H99.7013L102.515 24.4026L100.91 27.879H102.556L106.892 18.1553H105.139ZM90.9335 24.7533H92.5136V14.4408H90.9335V24.7533Z" fill="white"/>
<path d="M9.39186 6.22287C9.14365 6.47656 9 6.87153 9 7.38303V25.6279C9 26.1394 9.14365 26.5344 9.39186 26.7881L9.45313 26.8438L19.9247 16.6241V16.3827L9.45313 6.16306L9.39186 6.22287Z" fill="url(#paint0_linear_105_7933)"/>
<path d="M23.4124 20.0312L19.9258 16.623V16.3817L23.4166 12.9734L23.4948 13.0177L27.6289 15.3143C28.8087 15.9661 28.8087 17.0386 27.6289 17.6944L23.4948 19.9869L23.4124 20.0312Z" fill="url(#paint1_linear_105_7933)"/>
<path d="M23.4925 19.9823L19.9234 16.4978L9.39062 26.7824C9.78249 27.1846 10.4215 27.2331 11.1482 26.8309L23.4925 19.9823Z" fill="url(#paint2_linear_105_7933)"/>
<path d="M23.4925 13.0154L11.1482 6.16687C10.4215 5.76881 9.78249 5.81728 9.39062 6.21947L19.9234 16.5L23.4925 13.0154Z" fill="url(#paint3_linear_105_7933)"/>
<defs>
<linearGradient id="paint0_linear_105_7933" x1="18.9949" y1="25.8179" x2="5.15341" y2="11.641" gradientUnits="userSpaceOnUse">
<stop stop-color="#00A0FF"/>
<stop offset="0.0066" stop-color="#00A1FF"/>
<stop offset="0.2601" stop-color="#00BEFF"/>
<stop offset="0.5122" stop-color="#00D2FF"/>
<stop offset="0.7604" stop-color="#00DFFF"/>
<stop offset="1" stop-color="#00E3FF"/>
</linearGradient>
<linearGradient id="paint1_linear_105_7933" x1="29.1652" y1="16.5012" x2="8.71909" y2="16.5012" gradientUnits="userSpaceOnUse">
<stop stop-color="#FFE000"/>
<stop offset="0.4087" stop-color="#FFBD00"/>
<stop offset="0.7754" stop-color="#FFA500"/>
<stop offset="1" stop-color="#FF9C00"/>
</linearGradient>
<linearGradient id="paint2_linear_105_7933" x1="21.5517" y1="14.6035" x2="2.78152" y2="-4.62157" gradientUnits="userSpaceOnUse">
<stop stop-color="#FF3A44"/>
<stop offset="1" stop-color="#C31162"/>
</linearGradient>
<linearGradient id="paint3_linear_105_7933" x1="6.7393" y1="32.8546" x2="15.121" y2="24.2699" gradientUnits="userSpaceOnUse">
<stop stop-color="#32A071"/>
<stop offset="0.0685" stop-color="#2DA771"/>
<stop offset="0.4762" stop-color="#15CF74"/>
<stop offset="0.8009" stop-color="#06E775"/>
<stop offset="1" stop-color="#00F076"/>
</linearGradient>
</defs>
</svg>
