<svg width="160" height="160" viewBox="0 0 160 160" fill="none" xmlns="http://www.w3.org/2000/svg">
<g opacity="0.1" clip-path="url(#clip0_8_8153)">
<mask id="mask0_8_8153" style="mask-type:alpha" maskUnits="userSpaceOnUse" x="0" y="0" width="160" height="160">
<path d="M160 0H0V160H160V0Z" fill="#D9D9D9"/>
</mask>
<g mask="url(#mask0_8_8153)">
<path d="M-165.396 165.196L2.25721 -3.23623C1.8464 -3.6038 1.43559 -3.97137 1.01397 -4.32812L-166.488 163.953C-166.132 164.364 -165.764 164.785 -165.396 165.196Z" fill="#0B315E"/>
<path d="M-158.814 165.196L8.83881 -3.23623C8.428 -3.6038 8.0172 -3.97137 7.59557 -4.32812L-159.906 163.953C-159.549 164.364 -159.182 164.785 -158.814 165.196Z" fill="#0B315E"/>
<path d="M-152.228 165.196L15.4254 -3.23623C15.0146 -3.6038 14.6038 -3.97137 14.1822 -4.32812L-153.32 163.953C-152.964 164.364 -152.596 164.785 -152.228 165.196Z" fill="#0B315E"/>
<path d="M-145.646 165.196L22.007 -3.23623C21.5962 -3.6038 21.1854 -3.97137 20.7638 -4.32812L-146.738 163.953C-146.382 164.364 -146.014 164.785 -145.646 165.196Z" fill="#0B315E"/>
<path d="M-139.064 165.196L28.5897 -3.23623C28.1789 -3.6038 27.7681 -3.97137 27.3464 -4.32812L-140.156 163.953C-139.799 164.364 -139.432 164.785 -139.064 165.196Z" fill="#0B315E"/>
<path d="M-132.478 165.196L35.1752 -3.23623C34.7644 -3.6038 34.3536 -3.97137 33.932 -4.32812L-133.57 163.953C-133.214 164.364 -132.846 164.785 -132.478 165.196Z" fill="#0B315E"/>
<path d="M-125.896 165.196L41.7568 -3.23623C41.346 -3.6038 40.9352 -3.97137 40.5136 -4.32812L-126.988 163.953C-126.632 164.364 -126.264 164.785 -125.896 165.196Z" fill="#0B315E"/>
<path d="M-119.314 165.196L48.3395 -3.23623C47.9287 -3.6038 47.5179 -3.97137 47.0962 -4.32812L-120.406 163.953C-120.049 164.364 -119.682 164.785 -119.314 165.196Z" fill="#0B315E"/>
<path d="M-112.728 165.196L54.925 -3.23623C54.5142 -3.6038 54.1033 -3.97137 53.6817 -4.32812L-113.82 163.953C-113.464 164.364 -113.096 164.785 -112.728 165.196Z" fill="#0B315E"/>
<path d="M-106.146 165.196L61.5071 -3.23623C61.0963 -3.6038 60.6855 -3.97137 60.2639 -4.32812L-107.238 163.953C-106.882 164.364 -106.514 164.785 -106.146 165.196Z" fill="#0B315E"/>
<path d="M-99.5644 165.196L68.0892 -3.23623C67.6784 -3.6038 67.2675 -3.97137 66.8459 -4.32812L-100.656 163.953C-100.299 164.364 -99.9319 164.785 -99.5644 165.196Z" fill="#0B315E"/>
<path d="M-92.9784 165.196L74.6751 -3.23623C74.2643 -3.6038 73.8535 -3.97137 73.4319 -4.32812L-94.0703 163.953C-93.7136 164.364 -93.346 164.785 -92.9784 165.196Z" fill="#0B315E"/>
<path d="M-86.3964 165.196L81.2571 -3.23623C80.8463 -3.6038 80.4355 -3.97137 80.0139 -4.32812L-87.4883 163.953C-87.1315 164.364 -86.764 164.785 -86.3964 165.196Z" fill="#0B315E"/>
<path d="M-79.8144 165.196L87.8392 -3.23623C87.4284 -3.6038 87.0176 -3.97137 86.5959 -4.32812L-80.9062 163.953C-80.5495 164.364 -80.1819 164.785 -79.8144 165.196Z" fill="#0B315E"/>
<path d="M-73.2284 165.196L94.4251 -3.23623C94.0143 -3.6038 93.6035 -3.97137 93.1819 -4.32812L-74.3203 163.953C-73.9636 164.364 -73.596 164.785 -73.2284 165.196Z" fill="#0B315E"/>
<path d="M-66.6464 165.196L101.007 -3.23623C100.596 -3.6038 100.186 -3.97137 99.7639 -4.32812L-67.7383 163.953C-67.3815 164.364 -67.014 164.785 -66.6464 165.196Z" fill="#0B315E"/>
<path d="M-60.0642 165.196L107.589 -3.23623C107.178 -3.6038 106.768 -3.97137 106.346 -4.32812L-61.1562 163.953C-60.7995 164.364 -60.4318 164.785 -60.0642 165.196Z" fill="#0B315E"/>
<path d="M-53.4783 165.196L114.176 -3.23623C113.765 -3.6038 113.354 -3.97137 112.932 -4.32812L-54.5703 163.953C-54.2136 164.364 -53.8459 164.785 -53.4783 165.196Z" fill="#0B315E"/>
<path d="M-46.8963 165.196L120.757 -3.23623C120.346 -3.6038 119.936 -3.97137 119.514 -4.32812L-47.9883 163.953C-47.6315 164.364 -47.2638 164.785 -46.8963 165.196Z" fill="#0B315E"/>
<path d="M-40.3142 165.196L127.34 -3.23623C126.929 -3.6038 126.518 -3.97137 126.096 -4.32812L-41.4062 163.953C-41.0495 164.364 -40.6818 164.785 -40.3142 165.196Z" fill="#0B315E"/>
<path d="M-33.7283 165.196L133.925 -3.23623C133.514 -3.6038 133.103 -3.97137 132.682 -4.32812L-34.8203 163.953C-34.4636 164.364 -34.0959 164.785 -33.7283 165.196Z" fill="#0B315E"/>
<path d="M-27.1463 165.196L140.507 -3.23623C140.097 -3.6038 139.686 -3.97137 139.264 -4.32812L-28.2383 163.953C-27.8815 164.364 -27.5138 164.785 -27.1463 165.196Z" fill="#0B315E"/>
<path d="M-20.5642 165.196L147.09 -3.23623C146.679 -3.6038 146.268 -3.97137 145.847 -4.32812L-21.6562 163.953C-21.2995 164.364 -20.9318 164.785 -20.5642 165.196Z" fill="#0B315E"/>
<path d="M-13.9783 165.196L153.675 -3.23623C153.264 -3.6038 152.853 -3.97137 152.432 -4.32812L-15.0703 163.953C-14.7136 164.364 -14.3459 164.785 -13.9783 165.196Z" fill="#0B315E"/>
<path d="M-7.39638 165.196L160.257 -3.23623C159.846 -3.6038 159.435 -3.97137 159.013 -4.32812L-8.48828 163.953C-8.13152 164.364 -7.76395 164.785 -7.39638 165.196Z" fill="#0B315E"/>
<path d="M-0.814345 165.196L166.839 -3.23623C166.428 -3.6038 166.018 -3.97137 165.596 -4.32812L-1.90625 163.953C-1.54949 164.364 -1.18191 164.785 -0.814345 165.196Z" fill="#0B315E"/>
<path d="M5.77159 165.196L173.426 -3.23623C173.015 -3.6038 172.604 -3.97137 172.182 -4.32812L4.67969 163.953C5.03644 164.364 5.40402 164.785 5.77159 165.196Z" fill="#0B315E"/>
<path d="M12.3536 165.196L180.007 -3.23623C179.596 -3.6038 179.185 -3.97137 178.764 -4.32812L11.2617 163.953C11.6185 164.364 11.986 164.785 12.3536 165.196Z" fill="#0B315E"/>
<path d="M18.9356 165.196L186.589 -3.23623C186.179 -3.6038 185.768 -3.97137 185.346 -4.32812L17.8438 163.953C18.2005 164.364 18.5681 164.785 18.9356 165.196Z" fill="#0B315E"/>
<path d="M25.5216 165.196L193.175 -3.23623C192.764 -3.6038 192.353 -3.97137 191.931 -4.32812L24.4297 163.953C24.7864 164.364 25.154 164.785 25.5216 165.196Z" fill="#0B315E"/>
<path d="M32.1036 165.196L199.757 -3.23623C199.346 -3.6038 198.936 -3.97137 198.514 -4.32812L31.0117 163.953C31.3685 164.364 31.736 164.785 32.1036 165.196Z" fill="#0B315E"/>
<path d="M38.6856 165.196L206.34 -3.23623C205.929 -3.6038 205.518 -3.97137 205.096 -4.32812L37.5938 163.953C37.9505 164.364 38.3181 164.785 38.6856 165.196Z" fill="#0B315E"/>
<path d="M45.2716 165.196L212.925 -3.23623C212.514 -3.6038 212.103 -3.97137 211.682 -4.32812L44.1797 163.953C44.5364 164.364 44.904 164.785 45.2716 165.196Z" fill="#0B315E"/>
<path d="M51.8536 165.196L219.507 -3.23623C219.097 -3.6038 218.686 -3.97137 218.264 -4.32812L50.7617 163.953C51.1185 164.364 51.486 164.785 51.8536 165.196Z" fill="#0B315E"/>
<path d="M58.4356 165.196L226.089 -3.23623C225.678 -3.6038 225.267 -3.97137 224.845 -4.32812L57.3438 163.953C57.7005 164.364 58.0681 164.785 58.4356 165.196Z" fill="#0B315E"/>
<path d="M65.0216 165.196L232.675 -3.23623C232.264 -3.6038 231.853 -3.97137 231.432 -4.32812L63.9297 163.953C64.2864 164.364 64.654 164.785 65.0216 165.196Z" fill="#0B315E"/>
<path d="M71.6036 165.196L239.258 -3.23623C238.847 -3.6038 238.436 -3.97137 238.014 -4.32812L70.5117 163.953C70.8685 164.364 71.236 164.785 71.6036 165.196Z" fill="#0B315E"/>
<path d="M78.1856 165.196L245.839 -3.23623C245.428 -3.6038 245.017 -3.97137 244.596 -4.32812L77.0938 163.953C77.4505 164.364 77.8181 164.785 78.1856 165.196Z" fill="#0B315E"/>
<path d="M84.7716 165.196L252.425 -3.23623C252.015 -3.6038 251.604 -3.97137 251.182 -4.32812L83.6797 163.953C84.0364 164.364 84.404 164.785 84.7716 165.196Z" fill="#0B315E"/>
<path d="M91.3536 165.196L259.007 -3.23623C258.596 -3.6038 258.185 -3.97137 257.763 -4.32812L90.2617 163.953C90.6185 164.364 90.986 164.785 91.3536 165.196Z" fill="#0B315E"/>
<path d="M97.9356 165.196L265.589 -3.23623C265.178 -3.6038 264.768 -3.97137 264.346 -4.32812L96.8438 163.953C97.2005 164.364 97.5681 164.785 97.9356 165.196Z" fill="#0B315E"/>
<path d="M104.522 165.196L272.175 -3.23623C271.764 -3.6038 271.353 -3.97137 270.931 -4.32812L103.43 163.953C103.786 164.364 104.154 164.785 104.522 165.196Z" fill="#0B315E"/>
<path d="M111.104 165.196L278.758 -3.23623C278.347 -3.6038 277.936 -3.97137 277.514 -4.32812L110.012 163.953C110.368 164.364 110.736 164.785 111.104 165.196Z" fill="#0B315E"/>
<path d="M117.686 165.196L285.34 -3.23623C284.929 -3.6038 284.518 -3.97137 284.096 -4.32812L116.594 163.953C116.951 164.364 117.318 164.785 117.686 165.196Z" fill="#0B315E"/>
<path d="M124.272 165.196L291.925 -3.23623C291.514 -3.6038 291.103 -3.97137 290.681 -4.32812L123.18 163.953C123.536 164.364 123.904 164.785 124.272 165.196Z" fill="#0B315E"/>
<path d="M130.854 165.196L298.508 -3.23623C298.097 -3.6038 297.686 -3.97137 297.264 -4.32812L129.762 163.953C130.118 164.364 130.486 164.785 130.854 165.196Z" fill="#0B315E"/>
<path d="M137.436 165.196L305.089 -3.23623C304.678 -3.6038 304.267 -3.97137 303.845 -4.32812L136.344 163.953C136.701 164.364 137.068 164.785 137.436 165.196Z" fill="#0B315E"/>
<path d="M144.022 165.196L311.676 -3.23623C311.265 -3.6038 310.854 -3.97137 310.432 -4.32812L142.93 163.953C143.286 164.364 143.654 164.785 144.022 165.196Z" fill="#0B315E"/>
<path d="M150.604 165.196L318.258 -3.23623C317.847 -3.6038 317.436 -3.97137 317.014 -4.32812L149.512 163.953C149.868 164.364 150.236 164.785 150.604 165.196Z" fill="#0B315E"/>
<path d="M157.186 165.196L324.839 -3.23623C324.428 -3.6038 324.017 -3.97137 323.595 -4.32812L156.094 163.953C156.451 164.364 156.818 164.785 157.186 165.196Z" fill="#0B315E"/>
</g>
</g>
<defs>
<clipPath id="clip0_8_8153">
<rect width="160" height="160" fill="white"/>
</clipPath>
</defs>
</svg>
