<svg width="34" height="34" viewBox="0 0 34 34" fill="none" xmlns="http://www.w3.org/2000/svg">
<path d="M30.4865 0H3.51331C2.58182 0.000960057 1.68875 0.37142 1.03009 1.03009C0.37142 1.68875 0.000960056 2.58182 0 3.51331V23.6865C0.000960056 24.618 0.37142 25.5111 1.03009 26.1698C1.68875 26.8284 2.58182 27.1989 3.51331 27.1998H15.8666V32.8665C15.8665 33.0517 15.9119 33.234 15.9987 33.3976C16.0854 33.5612 16.2109 33.7011 16.3643 33.805C16.5176 33.9088 16.694 33.9735 16.8781 33.9934C17.0622 34.0133 17.2484 33.9878 17.4204 33.9191L22.6665 31.8206L27.9127 33.9191C28.0847 33.9878 28.2709 34.0133 28.455 33.9934C28.6391 33.9735 28.8155 33.9088 28.9688 33.805C29.1221 33.7011 29.2477 33.5612 29.3344 33.3976C29.4212 33.234 29.4665 33.0517 29.4665 32.8665V27.1998H30.4865C31.418 27.1989 32.3111 26.8284 32.9697 26.1698C33.6284 25.5111 33.9988 24.618 33.9998 23.6865V3.51331C33.9988 2.58182 33.6284 1.68875 32.9697 1.03009C32.3111 0.37142 31.418 0.000960057 30.4865 0ZM27.1998 31.193L23.087 29.5472C22.817 29.4396 22.5161 29.4396 22.2461 29.5472L18.1332 31.193V20.3999H27.1998V31.193ZM31.7332 23.687C31.7331 24.0176 31.6018 24.3347 31.368 24.5685C31.1342 24.8023 30.8171 24.9336 30.4865 24.9336H29.4665V19.2666C29.4665 18.966 29.3471 18.6777 29.1346 18.4652C28.922 18.2526 28.6337 18.1332 28.3332 18.1332H16.9999C16.6993 18.1332 16.4111 18.2526 16.1985 18.4652C15.986 18.6777 15.8666 18.966 15.8666 19.2666V24.9332H3.51331C3.18268 24.9332 2.86559 24.8019 2.63179 24.5681C2.398 24.3343 2.26665 24.0172 2.26665 23.6865V3.51331C2.26665 3.18268 2.398 2.86559 2.63179 2.63179C2.86559 2.398 3.18268 2.26665 3.51331 2.26665H30.4865C30.8171 2.26665 31.1342 2.398 31.368 2.63179C31.6018 2.86559 31.7331 3.18268 31.7332 3.51331V23.687Z" fill="black"/>
<path d="M26.0673 6.79688H7.93411C7.63353 6.79688 7.34527 6.91628 7.13273 7.12882C6.92019 7.34136 6.80078 7.62962 6.80078 7.9302C6.80078 8.23078 6.92019 8.51904 7.13273 8.73158C7.34527 8.94412 7.63353 9.06353 7.93411 9.06353H26.0673C26.3679 9.06353 26.6562 8.94412 26.8687 8.73158C27.0813 8.51904 27.2007 8.23078 27.2007 7.9302C27.2007 7.62962 27.0813 7.34136 26.8687 7.12882C26.6562 6.91628 26.3679 6.79688 26.0673 6.79688Z" fill="black"/>
<path d="M17.0007 13.6016H7.93411C7.63353 13.6016 7.34527 13.721 7.13273 13.9335C6.92019 14.146 6.80078 14.4343 6.80078 14.7349C6.80078 15.0355 6.92019 15.3237 7.13273 15.5363C7.34527 15.7488 7.63353 15.8682 7.93411 15.8682H17.0007C17.3013 15.8682 17.5896 15.7488 17.8021 15.5363C18.0146 15.3237 18.1341 15.0355 18.1341 14.7349C18.1341 14.4343 18.0146 14.146 17.8021 13.9335C17.5896 13.721 17.3013 13.6016 17.0007 13.6016Z" fill="black"/>
</svg>
