<svg width="202" height="60" viewBox="0 0 202 60" fill="none" xmlns="http://www.w3.org/2000/svg">
<path d="M167.024 37.6728C171.445 42.0925 178.598 42.0882 182.992 37.6947C187.369 33.3186 187.369 26.172 182.948 21.7523C178.584 17.3894 171.445 17.4025 167.068 21.7785C162.673 26.172 162.66 33.3142 167.024 37.6728Z" fill="#FFD300"/>
<path d="M165.705 20.3795C165.732 20.4056 166.107 19.9432 166.526 19.5156C166.875 19.1578 166.155 19.8864 166.526 19.5156L175.022 11.0165L183.523 19.5156C183.899 19.9083 183.523 19.5156 184.326 20.3969C184.645 20.7459 184.326 20.3969 184.326 20.3969L186.199 18.5252C188.223 16.5008 188.223 13.1936 186.199 11.1692L175.018 0L163.851 11.1692C161.826 13.1936 161.826 16.5008 163.851 18.5252L165.705 20.3795Z" fill="#231F20"/>
<path d="M200.047 25.0218L190.844 15.8203L188.959 17.7051C186.955 19.7077 186.955 22.9538 188.959 24.9564L193.755 29.7513L176.386 47.1159C173.322 49.9999 175.024 49.2232 175.029 50.4187L175.024 50.4231C175.024 49.2276 176.473 49.869 173.667 47.1203L156.294 29.7513L161.535 24.5114C163.294 22.7531 163.294 19.9084 161.535 18.1501L159.205 15.8203L150.001 25.0218C147.401 27.6222 147.401 31.8761 150.001 34.4764L175.029 59.498L200.056 34.4764C202.648 31.8761 202.648 27.6222 200.047 25.0218Z" fill="#231F20"/>
<path d="M11.3584 22.7138C11.3584 24.2757 10.826 25.5977 9.76121 26.6972C8.71386 27.7966 7.42649 28.3595 5.92965 28.3595C4.43281 28.3595 3.1629 27.801 2.09809 26.6972C1.03329 25.5933 0.500884 24.2757 0.500884 22.692L0.417969 18.6082H2.60868C2.60868 20.1484 2.60868 21.5314 2.6305 22.7312C2.6305 23.6736 2.95779 24.4939 3.59493 25.1527C4.22771 25.8377 5.00886 26.178 5.92965 26.178C6.82863 26.178 7.60978 25.8377 8.24255 25.157C8.89714 24.4764 9.22444 23.6562 9.22444 22.6963L9.08479 10.8203H11.2755L11.3584 22.7138Z" fill="#232323" stroke="#231F20" stroke-width="0.5" stroke-miterlimit="10"/>
<path d="M18.7501 23.9923H16.2321C15.6604 23.9923 15.1673 23.7916 14.7789 23.412C14.3294 22.9932 14.0806 22.3911 14.0806 21.6319L14.0195 11.043H16.1884L16.2713 20.7942C16.2713 21.5141 16.6379 22.0551 17.2139 22.0551H18.7501V23.9923Z" fill="#232323" stroke="#231F20" stroke-width="0.5" stroke-miterlimit="10"/>
<path d="M28.2302 23.9936H26.2228C25.6075 23.9936 25.0751 23.7318 24.6474 23.2344C24.4205 22.9552 24.2372 22.676 24.1368 22.3749C23.7877 23.3566 22.7229 23.9761 21.597 23.9979H18.3633V22.0564H20.7809C21.1693 22.0564 21.5184 21.9561 21.8457 21.7379C22.2778 21.4761 22.4829 21.1184 22.4829 20.6559L22.4436 16.69H24.595C24.595 17.4317 24.6168 18.4701 24.6561 19.8138C24.6561 20.5163 24.8612 21.0747 25.2889 21.4936C25.638 21.8732 26.0046 22.0564 26.4148 22.0564H28.2389V22.5582V23.5006V23.9936H28.2302ZM22.9498 15.0669H20.9642V13.0469H22.9498V15.0669ZM25.9173 15.0669H23.9317V13.0469H25.9173V15.0669Z" fill="#232323" stroke="#231F20" stroke-width="0.5" stroke-miterlimit="10"/>
<path d="M37.5703 23.9911H35.7462C35.1309 23.9911 34.5985 23.7293 34.1708 23.232C33.9439 22.9527 33.7606 22.6735 33.6602 22.3725C33.3111 23.3541 32.2463 23.9737 31.1204 23.9955H27.8867V22.054H30.3044C30.6927 22.054 31.0419 21.9536 31.3692 21.7355C31.8012 21.4737 32.0063 21.1159 32.0063 20.6534L31.967 16.6875H34.1185C34.1185 17.4292 34.1403 18.4676 34.1795 19.8114C34.1795 20.5138 34.3847 21.0723 34.8123 21.4911C35.1614 21.8707 35.528 22.054 35.9382 22.054H37.5791V22.5557V23.4981V23.9911H37.5703ZM32.1023 27.0365H30.1167V25.0164H32.1023V27.0365ZM35.0523 27.0365H33.0842V25.0164H35.0523V27.0365Z" fill="#232323" stroke="#231F20" stroke-width="0.5" stroke-miterlimit="10"/>
<path d="M43.1409 21.3912C43.1409 22.9925 42.1764 23.9916 40.3959 23.9916H37.1797V22.0501H39.5973C40.3959 22.0501 40.9894 21.5701 40.9894 20.667C40.9894 19.886 40.9894 19.2272 40.9676 18.6862C40.9458 17.866 40.9458 17.1853 40.9283 16.6836H43.1016C43.119 19.8511 43.1409 21.4131 43.1409 21.3912ZM41.1509 27.0369H39.1871V25.0169H41.1553V27.0369H41.1509Z" fill="#232323" stroke="#231F20" stroke-width="0.5" stroke-miterlimit="10"/>
<path d="M50.5352 23.9923H48.0172C47.4455 23.9923 46.9524 23.7916 46.564 23.412C46.1145 22.9932 45.8658 22.3911 45.8658 21.6319L45.8047 11.043H47.9736L48.0565 20.7942C48.0565 21.5141 48.4274 22.0551 48.9991 22.0551H50.5352V23.9923Z" fill="#232323" stroke="#231F20" stroke-width="0.5" stroke-miterlimit="10"/>
<path d="M60.732 23.9902H50.1406V22.0269H58.4758C58.31 20.9274 57.8605 20.0854 57.1448 19.4833C56.4684 18.9205 55.6305 18.6412 54.6442 18.6412C53.6012 18.6412 52.5975 18.9597 51.5938 19.5836L50.7952 17.9432L56.3025 12.5156L57.8168 13.9772L55.0108 16.6779C57.04 16.6779 58.5325 17.4196 59.497 18.9205C60.3217 20.1901 60.732 21.8698 60.732 23.9902Z" fill="#232323" stroke="#231F20" stroke-width="0.5" stroke-miterlimit="10"/>
<path d="M64.8867 26.6748C66.1348 26.653 67.1822 26.2734 68.0419 25.4924C68.9452 24.6722 69.3947 23.6294 69.3947 22.3511L69.3554 16.6836H71.5461L71.5854 22.1286C71.5854 23.8694 71.0923 25.2917 70.1104 26.4348C69.1459 27.5779 67.8586 28.2149 66.2395 28.3371C65.9341 27.9357 65.4802 27.3772 64.8867 26.6748Z" fill="#232323" stroke="#231F20" stroke-width="0.5" stroke-miterlimit="10"/>
<path d="M78.9805 23.9923H76.4625C75.8909 23.9923 75.3977 23.7916 75.0093 23.412C74.5598 22.9932 74.3111 22.3911 74.3111 21.6319L74.25 11.043H76.4189L76.5018 20.7942C76.5018 21.5141 76.8684 22.0551 77.4444 22.0551H78.9805V23.9923Z" fill="#232323" stroke="#231F20" stroke-width="0.5" stroke-miterlimit="10"/>
<path d="M89.7485 23.9919H87.6407C87.0472 25.2136 85.9388 25.8156 84.3241 25.8156C82.788 25.8156 81.6621 25.2136 80.9464 23.9919H78.5898V22.0504H80.414C80.414 19.7293 81.8497 18.2852 84.1626 18.2852C85.3714 18.2852 86.3315 18.6865 87.0516 19.4675C87.728 20.1874 88.0771 21.0469 88.0771 22.0504H89.7572V23.9919H89.7485ZM85.9213 22.0504C85.9213 21.4309 85.738 20.9291 85.3889 20.5495C85.0834 20.2092 84.6907 20.0478 84.263 20.0478C83.8135 20.0478 83.4426 20.2092 83.1589 20.5495C82.8534 20.9117 82.6876 21.409 82.6876 22.0504C82.6876 22.6918 82.8709 23.1935 83.22 23.5731C83.5255 23.9134 83.9182 24.0748 84.3459 24.0748C85.2449 24.0748 85.9213 23.3549 85.9213 22.0504Z" fill="#232323" stroke="#231F20" stroke-width="0.5" stroke-miterlimit="10"/>
<path d="M99.2755 23.9912H97.2462C96.6309 23.9912 96.0985 23.7294 95.6708 23.232C95.4439 22.9528 95.2606 22.6736 95.1602 22.3725C94.8111 23.3542 93.7463 23.9737 92.6204 23.9955H89.3867V22.054H91.8043C92.1927 22.054 92.5419 21.9537 92.8692 21.7355C93.3012 21.4737 93.5063 21.116 93.5063 20.6535L93.467 16.6876H95.6185C95.6185 17.4293 95.6403 18.4677 95.6795 19.8115C95.6795 20.5139 95.8847 21.0724 96.3123 21.4912C96.6614 21.8708 97.028 22.054 97.4382 22.054H99.2798V22.5558V23.4982V23.9912H99.2755ZM94.0082 15.0645H92.04V13.0445H94.0082V15.0645ZM95.505 12.4206H93.5194V10.418H95.505V12.4206ZM96.98 15.0645H95.0119V13.0445H96.98V15.0645Z" fill="#232323" stroke="#231F20" stroke-width="0.5" stroke-miterlimit="10"/>
<path d="M108.777 23.9936H106.77C106.154 23.9936 105.622 23.7318 105.194 23.2344C104.967 22.9552 104.784 22.676 104.684 22.3749C104.335 23.3566 103.27 23.9761 102.144 23.9979H98.9102V22.0564H101.328C101.716 22.0564 102.065 21.9561 102.393 21.7379C102.825 21.4761 103.03 21.1184 103.03 20.6559L102.99 16.69H105.142C105.142 17.4317 105.164 18.4701 105.203 19.8138C105.203 20.5163 105.408 21.0747 105.836 21.4936C106.185 21.8732 106.551 22.0564 106.962 22.0564H108.786V22.5582V23.5006V23.9936H108.777ZM103.492 15.0669H101.507V13.0469H103.492V15.0669ZM106.464 15.0669H104.479V13.0469H106.464V15.0669Z" fill="#232323" stroke="#231F20" stroke-width="0.5" stroke-miterlimit="10"/>
<path d="M123.869 20.9903C123.848 23.1325 122.887 24.232 120.941 24.2713C119.693 24.2931 118.772 23.7695 118.218 22.6919C117.769 23.7128 116.887 24.2538 115.595 24.2713C114.57 24.2931 113.771 23.931 113.199 23.2285V23.9877H108.43L108.452 22.0461H111.074C111.052 19.3455 111.035 17.7617 111.013 17.26H113.186V20.1613V20.2399C113.247 20.842 113.431 21.3219 113.78 21.6622C114.129 22.0243 114.557 22.2032 115.111 22.2032C115.949 22.2032 116.359 21.7407 116.359 20.842C116.359 20.5627 116.359 19.3586 116.337 17.26H118.489C118.51 17.8184 118.51 18.7216 118.528 19.9825C118.55 20.7242 118.733 21.2826 119.121 21.6622C119.471 22.0243 119.898 22.2032 120.452 22.2032C121.29 22.2032 121.7 21.7626 121.7 20.8638C121.7 20.9249 121.7 19.5418 121.679 16.6797H123.848L123.869 20.9903Z" fill="#232323" stroke="#231F20" stroke-width="0.5" stroke-miterlimit="10"/>
<path d="M133.165 20.0704C133.165 21.231 132.672 22.1734 131.668 22.9151C130.686 23.635 129.416 23.9971 127.858 23.9971H126.117V22.0556H127.021C127.985 22.0556 128.801 21.8767 129.521 21.4927C130.486 20.991 130.974 20.1926 130.974 19.1324C130.974 19.0713 130.935 16.3881 130.852 11.0434H133.043L133.165 20.0704ZM129.133 19.9701C128.722 20.4718 127.741 20.6725 126.981 20.7292L126.881 11.0391H129.032L129.133 19.9701Z" fill="#232323" stroke="#231F20" stroke-width="0.5" stroke-miterlimit="10"/>
<path d="M138.08 23.9927H135.929L135.828 11.0391H137.98L138.08 23.9927Z" fill="#232323" stroke="#231F20" stroke-width="0.5" stroke-miterlimit="10"/>
<path d="M4.60834 37.1367H6.79032L11.3987 47.9656H8.9243L7.94241 45.5529H3.39516L2.41327 47.9656H0L4.60834 37.1367ZM7.0958 43.4674L5.66878 39.9814L4.24177 43.4674H7.0958Z" fill="#232323"/>
<path d="M12.5312 36.7539H14.866V47.9668H12.5312V36.7539Z" fill="#232323"/>
<path d="M16.7266 36.7539H19.1835V38.8307H16.7266V36.7539ZM16.7877 39.7338H19.1224V47.9668H16.7877V39.7338Z" fill="#232323"/>
<path d="M20.293 46.8776L21.2923 45.3419C22.1826 45.9876 23.1208 46.3235 23.8889 46.3235C24.5653 46.3235 24.8708 46.0792 24.8708 45.7084V45.6778C24.8708 45.1717 24.0722 45.0016 23.1645 44.7267C22.0124 44.3907 20.7075 43.8497 20.7075 42.2529V42.2223C20.7075 40.547 22.0604 39.6133 23.7187 39.6133C24.7617 39.6133 25.9007 39.9667 26.7909 40.5644L25.9007 42.1787C25.0846 41.7031 24.2729 41.4108 23.675 41.4108C23.1077 41.4108 22.8153 41.6552 22.8153 41.978V42.0086C22.8153 42.471 23.5965 42.6848 24.4911 42.9902C25.6432 43.3742 26.9786 43.9283 26.9786 45.4335V45.464C26.9786 47.2921 25.6126 48.1211 23.8278 48.1211C22.6713 48.1211 21.384 47.7371 20.293 46.8776Z" fill="#232323"/>
<path d="M28.4936 45.6306V41.7301H27.5117V39.7319H28.4936V37.6289H30.8283V39.7319H32.7659V41.7301H30.8283V45.2467C30.8283 45.7833 31.0596 46.0451 31.5833 46.0451C32.0153 46.0451 32.3994 45.936 32.7354 45.7528V47.6245C32.2423 47.9168 31.6749 48.1 30.8938 48.1C29.4624 48.1044 28.4936 47.5372 28.4936 45.6306Z" fill="#232323"/>
<path d="M34.1484 36.7539H36.6053V38.8307H34.1484V36.7539ZM34.2095 39.7338H36.5443V47.9668H34.2095V39.7338Z" fill="#232323"/>
<path d="M38.7397 45.6306V41.7301H37.7578V39.7319H38.7397V37.6289H41.0744V39.7319H43.012V41.7301H41.0744V45.2467C41.0744 45.7833 41.3057 46.0451 41.8294 46.0451C42.2614 46.0451 42.6454 45.936 42.9815 45.7528V47.6245C42.4883 47.9168 41.921 48.1 41.1399 48.1C39.7085 48.1044 38.7397 47.5372 38.7397 45.6306Z" fill="#232323"/>
<path d="M44.3477 36.7539H46.6824V40.8987C47.2191 40.2094 47.913 39.5768 49.0956 39.5768C50.863 39.5768 51.8929 40.746 51.8929 42.6352V47.9624H49.5582V43.3769C49.5582 42.2731 49.0345 41.7015 48.1443 41.7015C47.2541 41.7015 46.6867 42.2687 46.6867 43.3769V47.9711H44.352V36.7539H44.3477Z" fill="#232323"/>
<path d="M53.5273 39.7352H55.8621V40.9001C56.3988 40.2108 57.1058 39.5781 58.2884 39.5781C59.362 39.5781 60.178 40.0537 60.61 40.8827C61.3301 40.0362 62.1942 39.5781 63.3157 39.5781C65.0526 39.5781 66.0955 40.6209 66.0955 42.606V47.9681H63.7608V43.3783C63.7608 42.2744 63.2677 41.7029 62.3949 41.7029C61.5178 41.7029 60.981 42.2701 60.981 43.3783V47.9725H58.6463V43.3783C58.6463 42.2744 58.1531 41.7029 57.2803 41.7029C56.4032 41.7029 55.8664 42.2701 55.8664 43.3783V47.9725H53.5317V39.7352H53.5273Z" fill="#232323"/>
<path d="M67.25 45.6004V45.5699C67.25 43.7724 68.6159 42.9434 70.5666 42.9434C71.3958 42.9434 71.9936 43.083 72.5784 43.2793V43.1397C72.5784 42.1711 71.9805 41.6345 70.811 41.6345C69.9207 41.6345 69.288 41.8047 68.5374 42.0795L67.9526 40.2994C68.8603 39.898 69.7505 39.6406 71.147 39.6406C72.4213 39.6406 73.3421 39.9766 73.9269 40.5612C74.5422 41.1764 74.8171 42.0839 74.8171 43.1877V47.9652H72.5609V47.0751C71.9936 47.7034 71.2081 48.1179 70.0735 48.1179C68.5243 48.1179 67.25 47.2278 67.25 45.6004ZM72.6089 45.0638V44.6493C72.2075 44.4661 71.6881 44.3439 71.1165 44.3439C70.1171 44.3439 69.5018 44.7453 69.5018 45.4783V45.5088C69.5018 46.1371 70.0255 46.5079 70.7761 46.5079C71.8714 46.5079 72.6089 45.9059 72.6089 45.0638Z" fill="#232323"/>
<path d="M76.4492 39.7344H78.7839V41.3923C79.2596 40.2536 80.0277 39.5206 81.411 39.5817V42.0249H81.2889C79.7353 42.0249 78.7839 42.963 78.7839 44.9263V47.9673H76.4492V39.7344Z" fill="#232323"/>
<path d="M86.4766 42.6202V42.5897C86.4766 39.5312 88.7807 37.0312 92.0842 37.0312C94.1135 37.0312 95.3267 37.7075 96.326 38.6892L94.8205 40.4256C93.9913 39.6752 93.1447 39.2127 92.0712 39.2127C90.2601 39.2127 88.9509 40.718 88.9509 42.5591V42.5897C88.9509 44.4309 90.2252 45.9666 92.0712 45.9666C93.3018 45.9666 94.0524 45.4736 94.899 44.7057L96.4046 46.2284C95.2961 47.4108 94.0698 48.1481 91.997 48.1481C88.8287 48.1481 86.4766 45.7092 86.4766 42.6202Z" fill="#232323"/>
<path d="M97.168 45.6004V45.5699C97.168 43.7724 98.5339 42.9434 100.485 42.9434C101.314 42.9434 101.912 43.083 102.496 43.2793V43.1397C102.496 42.1711 101.899 41.6345 100.729 41.6345C99.8387 41.6345 99.2059 41.8047 98.4553 42.0795L97.8706 40.2994C98.7783 39.898 99.6685 39.6406 101.065 39.6406C102.339 39.6406 103.26 39.9766 103.845 40.5612C104.46 41.1764 104.735 42.0839 104.735 43.1877V47.9652H102.479V47.0751C101.912 47.7034 101.126 48.1179 99.9915 48.1179C98.4422 48.1179 97.168 47.2278 97.168 45.6004ZM102.531 45.0638V44.6493C102.13 44.4661 101.61 44.3439 101.043 44.3439C100.044 44.3439 99.4285 44.7453 99.4285 45.4783V45.5088C99.4285 46.1371 99.9522 46.5079 100.703 46.5079C101.794 46.5079 102.531 45.9059 102.531 45.0638Z" fill="#232323"/>
<path d="M106.371 39.7347H108.706V40.9171C109.273 40.1492 110.059 39.582 111.272 39.582C113.192 39.582 115.02 41.0873 115.02 43.8359V43.8665C115.02 46.6151 113.223 48.1204 111.272 48.1204C110.028 48.1204 109.26 47.5532 108.706 46.89V50.424H106.371V39.7347ZM112.681 43.8665V43.8359C112.681 42.4703 111.761 41.5628 110.67 41.5628C109.579 41.5628 108.671 42.4703 108.671 43.8359V43.8665C108.671 45.2321 109.579 46.1396 110.67 46.1396C111.761 46.1396 112.681 45.2495 112.681 43.8665Z" fill="#232323"/>
<path d="M116.398 36.7539H118.855V38.8307H116.398V36.7539ZM116.46 39.7338H118.794V47.9668H116.46V39.7338Z" fill="#232323"/>
<path d="M120.99 45.6306V41.7301H120.008V39.7319H120.99V37.6289H123.324V39.7319H125.262V41.7301H123.324V45.2467C123.324 45.7833 123.556 46.0451 124.079 46.0451C124.511 46.0451 124.895 45.936 125.231 45.7528V47.6245C124.738 47.9168 124.171 48.1 123.39 48.1C121.959 48.1044 120.99 47.5372 120.99 45.6306Z" fill="#232323"/>
<path d="M126.105 45.6004V45.5699C126.105 43.7724 127.471 42.9434 129.422 42.9434C130.251 42.9434 130.849 43.083 131.434 43.2793V43.1397C131.434 42.1711 130.836 41.6345 129.666 41.6345C128.776 41.6345 128.143 41.8047 127.393 42.0795L126.808 40.2994C127.716 39.898 128.606 39.6406 130.002 39.6406C131.277 39.6406 132.198 39.9766 132.782 40.5612C133.398 41.1764 133.673 42.0839 133.673 43.1877V47.9652H131.416V47.0751C130.849 47.7034 130.064 48.1179 128.929 48.1179C127.384 48.1179 126.105 47.2278 126.105 45.6004ZM131.469 45.0638V44.6493C131.067 44.4661 130.548 44.3439 129.981 44.3439C128.981 44.3439 128.366 44.7453 128.366 45.4783V45.5088C128.366 46.1371 128.89 46.5079 129.64 46.5079C130.731 46.5079 131.469 45.9059 131.469 45.0638Z" fill="#232323"/>
<path d="M135.414 36.7539H137.749V47.9668H135.414V36.7539Z" fill="#232323"/>
</svg>
