<svg width="42" height="39" viewBox="0 0 42 39" fill="none" xmlns="http://www.w3.org/2000/svg">
<path d="M41.2319 22.03C41.2322 20.6031 40.8032 19.2092 40.0006 18.0295C39.1981 16.8497 38.0591 15.9387 36.7319 15.415C36.5528 11.2665 34.7787 7.34746 31.78 4.47537C28.7812 1.60328 24.7892 0 20.6369 0C16.4846 0 12.4926 1.60328 9.49385 4.47537C6.49506 7.34746 4.72105 11.2665 4.5419 15.415C2.99509 16.0141 1.70645 17.1353 0.899061 18.5843C0.0916703 20.0334 -0.183651 21.7191 0.120757 23.3497C0.425165 24.9804 1.29014 26.4532 2.56595 27.5134C3.84176 28.5735 5.4481 29.1542 7.1069 29.155C7.80188 29.151 8.46727 28.8732 8.95871 28.3818C9.45014 27.8903 9.72797 27.2249 9.7319 26.53V17.53C9.72797 16.835 9.45014 16.1696 8.95871 15.6782C8.46727 15.1867 7.80188 14.9089 7.1069 14.905H6.7919C7.07232 11.4336 8.64936 8.19494 11.2092 5.83351C13.7691 3.47208 17.1242 2.16093 20.6069 2.16093C24.0896 2.16093 27.4447 3.47208 30.0046 5.83351C32.5644 8.19494 34.1415 11.4336 34.4219 14.905H34.1069C33.4119 14.9089 32.7465 15.1867 32.2551 15.6782C31.7637 16.1696 31.4858 16.835 31.4819 17.53V26.53C31.4858 27.2249 31.7637 27.8903 32.2551 28.3818C32.7465 28.8732 33.4119 29.151 34.1069 29.155H34.1969C33.7845 30.8595 32.8128 32.3767 31.437 33.4643C30.0612 34.5519 28.3606 35.1471 26.6069 35.155H24.3119C24.1398 34.9194 23.9138 34.7285 23.6529 34.598C23.3919 34.4676 23.1036 34.4014 22.8119 34.405H18.3119C17.8146 34.405 17.3377 34.6025 16.9861 34.9541C16.6344 35.3058 16.4369 35.7827 16.4369 36.28C16.4369 36.7772 16.6344 37.2542 16.9861 37.6058C17.3377 37.9574 17.8146 38.155 18.3119 38.155H22.8119C23.1036 38.1586 23.3919 38.0924 23.6529 37.9619C23.9138 37.8314 24.1398 37.6405 24.3119 37.405H26.6069C29.0465 37.3993 31.4021 36.513 33.2403 34.909C35.0785 33.3051 36.2758 31.0913 36.6119 28.675C37.9663 28.1686 39.1342 27.2612 39.9596 26.0739C40.7851 24.8867 41.2289 23.476 41.2319 22.03ZM7.4819 17.53V26.53C7.4819 26.6294 7.44239 26.7248 7.37207 26.7951C7.30174 26.8655 7.20636 26.905 7.1069 26.905C5.81397 26.905 4.574 26.3914 3.65976 25.4771C2.74552 24.5629 2.2319 23.3229 2.2319 22.03C2.2319 20.737 2.74552 19.4971 3.65976 18.5828C4.574 17.6686 5.81397 17.155 7.1069 17.155C7.20636 17.155 7.30174 17.1945 7.37207 17.2648C7.44239 17.3351 7.4819 17.4305 7.4819 17.53ZM34.1069 26.905C34.0074 26.905 33.9121 26.8655 33.8417 26.7951C33.7714 26.7248 33.7319 26.6294 33.7319 26.53V17.53C33.7319 17.4305 33.7714 17.3351 33.8417 17.2648C33.9121 17.1945 34.0074 17.155 34.1069 17.155C35.3998 17.155 36.6398 17.6686 37.554 18.5828C38.4683 19.4971 38.9819 20.737 38.9819 22.03C38.9819 23.3229 38.4683 24.5629 37.554 25.4771C36.6398 26.3914 35.3998 26.905 34.1069 26.905Z" fill="black"/>
</svg>
