<svg width="33" height="38" viewBox="0 0 33 38" fill="none" xmlns="http://www.w3.org/2000/svg">
<path d="M32 6.6C31.8 6 31.2 5.8 30.8 6C29 6.6 27.2 6.4 25.6 5.4H25.4C23 4.6 20.6 4.2 18.2 4.2L19 1.4C19 1 19 0.8 18.8 0.6C18.6 0.4 18.4 0 18 0H12C11.6 0 11.4 0.2 11.2 0.4C11 0.6 11 1 11 1.2L11.8 4.4C8 5.4 4.8 8.4 3.6 12.4L0.8 21.6C0.4 23.8 0 26 0 28.2C0 32.2 2.6 35.6 6.4 36.8C9.2 37.6 11.8 38 14.8 38H15.2C18.2 38 21 37.6 23.8 36.8C27.6 35.6 30.2 32.2 30.2 28.2C30.2 26 29.8 23.8 29.2 21.6L26.4 12.4C25.6 10 24.2 8 22.4 6.6C23.2 6.8 23.8 7 24.6 7.2C25.8 8 27.4 8.4 28.8 8.4C29.6 8.4 30.6 8.2 31.4 8C31.8 7.8 32.2 7.2 32 6.6ZM13.4 2H16.8L16.2 4C15.8 4 15.4 4 15 4C14.6 4 14.2 4 13.8 4L13.4 2ZM24.4 13L27.2 22.2C27.8 24.2 28 26.2 28 28.2C28 31.2 26 34 23.2 34.8C20.6 35.6 17.8 36 15.2 36C12.4 36 9.8 35.6 7.2 35C4 34 2 31.4 2 28.2C2 26.2 2.4 24.2 2.8 22.2L5.6 13C6.8 8.8 10.6 6 15 6C19.4 6 23 8.8 24.4 13Z" fill="black"/>
<path d="M14 16H19C19.6 16 20 15.6 20 15C20 14.4 19.6 14 19 14H16V13C16 12.4 15.6 12 15 12C14.4 12 14 12.4 14 13V14C11.8 14 10 15.8 10 18C10 20.2 11.8 22 14 22H16C17.2 22 18 22.8 18 24C18 25.2 17.2 26 16 26H11C10.4 26 10 26.4 10 27C10 27.6 10.4 28 11 28H14V29C14 29.6 14.4 30 15 30C15.6 30 16 29.6 16 29V28C18.2 28 20 26.2 20 24C20 21.8 18.2 20 16 20H14C12.8 20 12 19.2 12 18C12 16.8 12.8 16 14 16Z" fill="#474C55"/>
</svg>
