<svg width="50" height="50" viewBox="0 0 50 50" fill="none" xmlns="http://www.w3.org/2000/svg">
<rect width="50" height="50" fill="#F6F8FA"/>
<path d="M30.3041 25.3258C30.1996 25.2211 30.0755 25.1381 29.9389 25.0815C29.8023 25.0248 29.6559 24.9956 29.508 24.9956C29.3601 24.9956 29.2136 25.0248 29.077 25.0815C28.9404 25.1381 28.8163 25.2211 28.7118 25.3258L26.9168 27.1209C26.0845 26.8731 24.5316 26.3101 23.5474 25.3258C22.5631 24.3416 22.0001 22.7887 21.7523 21.9564L23.5474 20.1614C23.6521 20.0569 23.7351 19.9328 23.7917 19.7962C23.8484 19.6596 23.8776 19.5131 23.8776 19.3652C23.8776 19.2173 23.8484 19.0709 23.7917 18.9343C23.7351 18.7977 23.6521 18.6736 23.5474 18.5691L19.0429 14.0646C18.9384 13.9599 18.8143 13.8768 18.6777 13.8202C18.5411 13.7635 18.3946 13.7344 18.2467 13.7344C18.0988 13.7344 17.9524 13.7635 17.8157 13.8202C17.6791 13.8768 17.555 13.9599 17.4505 14.0646L14.3965 17.1186C13.9686 17.5465 13.7276 18.1344 13.7366 18.7346C13.7625 20.3382 14.187 25.908 18.5767 30.2977C22.9663 34.6873 28.5361 35.1107 30.1409 35.1378H30.1724C30.767 35.1378 31.3289 34.9035 31.7546 34.4778L34.8086 31.4238C34.9133 31.3193 34.9963 31.1952 35.053 31.0586C35.1097 30.922 35.1388 30.7755 35.1388 30.6276C35.1388 30.4797 35.1097 30.3333 35.053 30.1967C34.9963 30.06 34.9133 29.9359 34.8086 29.8314L30.3041 25.3258ZM30.1611 32.8844C28.7557 32.8607 23.9472 32.4835 20.169 28.7042C16.3785 24.9137 16.0113 20.0882 15.9888 18.711L18.2467 16.4531L21.1589 19.3652L19.7028 20.8213C19.5704 20.9536 19.4731 21.1167 19.4196 21.2961C19.3661 21.4754 19.3582 21.6652 19.3965 21.8483C19.4235 21.9778 20.0845 25.0488 21.9539 26.9182C23.8233 28.7875 26.8942 29.4486 27.0237 29.4756C27.2068 29.515 27.3968 29.5076 27.5763 29.4543C27.7557 29.401 27.9189 29.3033 28.0508 29.1704L29.508 27.7143L32.4201 30.6265L30.1611 32.8844Z" fill="black"/>
</svg>
