<svg width="41" height="37" viewBox="0 0 41 37" fill="none" xmlns="http://www.w3.org/2000/svg">
<path d="M4.06192 12.75C4.73769 13.588 5.38317 14.5 5.89672 15.4249C6.52874 16.563 6.95951 17.7241 7.04298 18.799C9.71778 20.5618 9.89278 21.9995 10.1614 23.5186C10.3922 24.8257 10.7214 26.1941 13.4897 28.0397C13.6446 28.1426 13.7496 28.3055 13.7798 28.4893C14.0726 30.2447 14.4886 30.6943 15.0742 31.2058C15.69 31.7456 16.4419 32.348 17.3236 34.0953C17.3848 34.0072 17.4454 33.9129 17.5033 33.814C17.6978 33.4801 17.8701 33.0925 17.8311 32.7061C17.7995 32.3925 17.9893 32.099 18.2881 31.9994C19.114 31.7241 20.1478 31.5538 21.1931 31.5646V32.908C20.4803 32.8979 19.7729 32.9895 19.1577 33.1463C19.0931 33.6195 18.9047 34.0839 18.6657 34.4925C18.2168 35.2625 17.6137 35.8231 17.6137 35.8231C17.4535 35.9726 17.23 36.0345 17.016 35.9887C16.8013 35.9436 16.6223 35.7969 16.5361 35.5956C15.5945 33.3994 14.815 32.768 14.1871 32.2195C13.4595 31.5821 12.8847 31.0423 12.503 28.9975C9.43644 26.8847 9.10259 25.2673 8.83538 23.7528C8.60855 22.4666 8.44971 21.2604 6.02865 19.7474C5.83211 19.6242 5.7123 19.4088 5.7123 19.1766C5.7123 18.2006 5.30576 17.1324 4.72019 16.0791C4.26586 15.2606 3.70047 14.4543 3.10547 13.7065L4.06192 12.75Z" fill="black" stroke="black"/>
<path d="M36.3368 21.0134C36.9917 21.076 37.4656 20.9165 37.8863 20.9071C38.5647 20.8923 39.1887 21.0599 39.9257 22.1651C39.9997 22.2761 40.0388 22.406 40.0388 22.5386C40.0388 23.7401 39.7964 24.461 39.5562 25.0378C39.2943 25.6658 39.0036 26.0555 39.3313 27.0375C39.4249 27.3188 39.3233 27.6291 39.0803 27.8001C36.3765 29.7056 31.3917 31.2886 28.5964 31.2886C28.0041 31.2886 27.574 31.397 27.255 31.5996C26.7758 31.9038 26.5644 32.4006 26.3753 32.8993C26.1956 33.3732 26.0448 33.8585 25.8328 34.2818C25.7258 34.4965 25.5124 34.6379 25.2728 34.6527C25.0332 34.6675 24.8043 34.5537 24.6711 34.3545C24.2241 33.6841 23.4992 33.2985 22.6949 33.0932C21.9989 32.9148 21.2417 32.8717 20.5195 32.9242V31.5787C21.3548 31.5269 22.2258 31.5835 23.0287 31.7887C23.7651 31.9772 24.4442 32.2888 25.0022 32.7438C25.0998 32.4706 25.1987 32.1946 25.3206 31.9321C25.5716 31.3896 25.9075 30.8989 26.4224 30.5375C26.9272 30.1828 27.6117 29.9425 28.5964 29.9425C31.0559 29.9425 35.342 28.6098 37.9125 26.9634C37.7032 26.0434 37.893 25.5002 38.1582 24.8816C38.3715 24.3835 38.6569 23.8195 38.6892 22.7446C38.5176 22.5104 38.3695 22.3677 38.2093 22.2984C38.0626 22.2351 37.9145 22.2479 37.753 22.2634C37.5692 22.2815 37.374 22.3125 37.16 22.3354C36.911 22.3623 36.6397 22.3798 36.3368 22.3636V21.0134Z" fill="black" stroke="black"/>
<path d="M12.7952 1.64062C17.4636 3.6713 19.495 5.70062 21.4799 7.7313C23.4675 7.77639 24.4986 8.29131 25.3649 8.72477C26.0703 9.07746 26.6323 9.3763 27.761 9.09428C27.9623 9.0438 28.1757 9.0889 28.3385 9.21678C28.5021 9.344 28.5977 9.53987 28.5977 9.74717C28.5977 12.0471 30.9178 13.1839 30.9178 13.1839C31.146 13.2977 31.29 13.5306 31.29 13.7857C31.29 15.0302 31.4825 15.7989 31.8136 16.3555C32.1509 16.9236 32.618 17.2695 33.0965 17.6902C33.8349 18.339 34.615 19.1158 35.1979 20.7009C35.7909 20.96 36.2694 21.0287 36.6746 21.0253V22.3661C36.0648 22.3789 35.3224 22.2759 34.3545 21.7913C34.195 21.7118 34.0732 21.5718 34.0166 21.4022C33.3981 19.5452 32.4551 18.9367 31.681 18.2401C30.7784 17.4277 30.0226 16.5392 29.9499 14.1707C29.2297 13.7056 27.6682 12.492 27.3209 10.5394C26.4775 10.6269 25.8784 10.4479 25.2794 10.178C24.3708 9.76871 23.4655 9.0741 21.1938 9.0741C21.0128 9.0741 20.8391 9.0014 20.7126 8.87149C18.7492 6.8637 16.8276 4.85525 12.1914 2.84745L12.7952 1.64062Z" fill="black" stroke="black"/>
<path d="M3.43508 14.129C2.70748 13.1672 1.90854 12.2835 1.1971 11.572C0.992481 11.3674 0.941327 11.0544 1.07123 10.7953L2.41739 8.10299C2.58364 7.77049 2.98748 7.63587 3.31998 7.80212C3.58921 7.93606 3.80864 8.02558 3.99239 8.07203C4.10883 8.10097 4.1896 8.12856 4.25287 8.09491C4.33094 8.05318 4.36662 7.96501 4.41979 7.87616C4.49921 7.74356 4.57594 7.59414 4.66412 7.44001C4.93537 6.96481 5.29344 6.44856 5.98469 6.07568L4.49989 4.09616C4.37941 3.93597 4.337 3.73068 4.38344 3.53549C4.43056 3.34097 4.56114 3.17673 4.74085 3.08856C6.61941 2.16443 8.62787 1.38837 10.989 1.00875C11.1075 0.989234 11.2286 1.0027 11.3404 1.04577C12.177 1.37222 12.9389 1.69798 13.6376 2.02375L12.7363 3.0926C12.2039 2.85097 11.6345 2.60933 11.022 2.3677C9.1845 2.6827 7.57518 3.25616 6.07018 3.94673L7.59604 5.98077C7.73133 6.16116 7.767 6.39741 7.69162 6.6101C7.61623 6.82212 7.43989 6.98299 7.22114 7.03751C6.13883 7.30808 5.89316 8.01212 5.62258 8.4853C5.35268 8.9578 5.04306 9.28558 4.57056 9.40405C4.27979 9.47674 3.88739 9.46731 3.33748 9.2728C3.33748 9.2728 2.49008 10.9676 2.4894 10.9676C3.08642 11.5862 3.72181 12.3043 4.32287 13.0764L3.43508 14.129Z" fill="black" stroke="black"/>
</svg>
