<svg width="33" height="38" viewBox="0 0 33 38" fill="none" xmlns="http://www.w3.org/2000/svg">
<path d="M16.4666 38C20.8323 37.995 25.0177 36.2585 28.1047 33.1715C31.1917 30.0845 32.9282 25.899 32.9333 21.5334V8.86673C32.9331 8.57405 32.8316 8.29046 32.646 8.06416C32.4604 7.83786 32.2021 7.68283 31.9151 7.6254C29.3896 7.11992 26.9368 6.30213 24.6133 5.19088C21.9612 3.92133 19.5024 2.28235 17.3102 0.322833C17.0784 0.114962 16.778 0 16.4666 0C16.1553 0 15.8549 0.114962 15.623 0.322833C13.4308 2.28218 10.972 3.92098 8.31995 5.19037C5.99643 6.30162 3.54365 7.11942 1.01814 7.6249C0.731067 7.68234 0.472751 7.83745 0.287131 8.06385C0.10151 8.29025 4.79851e-05 8.57397 0 8.86673V21.5334C0.00502862 25.899 1.74152 30.0845 4.82852 33.1715C7.91552 36.2585 12.101 37.995 16.4666 38ZM2.53333 9.88842C4.90729 9.3361 7.21417 8.52736 9.41334 7.47644C11.9446 6.26535 14.3142 4.74185 16.4666 2.94153C18.6191 4.74176 20.9886 6.26518 23.5199 7.47619C25.7191 8.52719 28.026 9.33602 30.3999 9.88842V21.5334C30.3999 25.2287 28.932 28.7727 26.319 31.3857C23.706 33.9987 20.162 35.4667 16.4666 35.4667C12.7713 35.4667 9.2273 33.9987 6.6143 31.3857C4.0013 28.7727 2.53333 25.2287 2.53333 21.5334V9.88842Z" fill="black"/>
</svg>
