<svg width="24" height="24" viewBox="0 0 24 24" fill="none" xmlns="http://www.w3.org/2000/svg">
<rect width="24" height="24" fill="black"/>
<path d="M19.1507 8.6436C19.1626 8.80389 19.1626 8.96326 19.1626 9.12263C19.1626 14 15.4503 19.6202 8.66599 19.6202C6.57582 19.6202 4.63403 19.0148 3 17.9633C3.29676 17.9972 3.58254 18.0091 3.89121 18.0091C5.55179 18.0131 7.16536 17.4578 8.47181 16.4327C7.70189 16.4188 6.95554 16.1648 6.33698 15.7061C5.71841 15.2475 5.2585 14.6072 5.02147 13.8745C5.24954 13.9084 5.47853 13.9313 5.7185 13.9313C6.04916 13.9313 6.38164 13.8855 6.69031 13.8058C5.85476 13.6371 5.10343 13.1842 4.56407 12.5241C4.02472 11.8641 3.73064 11.0375 3.73183 10.1851V10.1393C4.22369 10.4132 4.79432 10.5845 5.39884 10.6074C4.89241 10.2708 4.47715 9.81419 4.19011 9.27815C3.90308 8.74212 3.75319 8.14336 3.75382 7.53532C3.75382 6.85019 3.93609 6.22186 4.25575 5.67413C5.18281 6.81449 6.33905 7.74741 7.64961 8.41247C8.96016 9.07753 10.3958 9.4599 11.8635 9.53481C11.8067 9.26003 11.7719 8.97517 11.7719 8.6894C11.7717 8.20483 11.867 7.72497 12.0523 7.27724C12.2376 6.82951 12.5094 6.4227 12.852 6.08006C13.1946 5.73742 13.6014 5.46567 14.0492 5.28035C14.4969 5.09502 14.9768 4.99976 15.4613 5C16.5238 5 17.4828 5.44515 18.1569 6.16507C18.9829 6.00535 19.775 5.70383 20.4981 5.27387C20.2227 6.12643 19.646 6.84937 18.8759 7.30725C19.6085 7.22369 20.3244 7.03105 21 6.7357C20.4954 7.47129 19.8702 8.11633 19.1507 8.6436Z" fill="white"/>
</svg>
